<?xml version="1.0" encoding="UTF-8"?>
<svg version="1.1" xmlns="http://www.w3.org/2000/svg" width="133" height="133">
<path d="M0 0 C0.99 0.33 1.98 0.66 3 1 C3 2.65 3 4.3 3 6 C3.94875 5.95875 4.8975 5.9175 5.875 5.875 C9 6 9 6 11 8 C10.625 10.125 10.625 10.125 10 12 C7.69 12 5.38 12 3 12 C3 14.31 3 16.62 3 19 C3.556875 19.04125 4.11375 19.0825 4.6875 19.125 C8.67030477 20.63200721 11.12992356 24.25984712 13 28 C13.039992 29.99960012 13.04346799 32.00047242 13 34 C13.58265625 33.71125 14.1653125 33.4225 14.765625 33.125 C22.76828959 29.50115188 30.78688776 28.42401265 39.3125 31.0625 C45.07005594 33.62941035 49.46067932 38.11844046 52 43.875 C53.62849236 49.14724402 53.31992563 54.06561989 51.0546875 59.1015625 C47.62224278 64.98900079 43.01893492 70.54078608 36.83203125 73.53125 C33.59853991 76.34996245 33.54228559 76.90919268 33.1953125 80.984375 C33.14231148 82.905662 33.11988146 84.82798891 33.125 86.75 C33.104375 87.73355469 33.08375 88.71710938 33.0625 89.73046875 C33.0154316 92.15449158 32.99555508 94.57561389 33 97 C16.94090082 105.82023187 -1.89897644 107.8979599 -19.875 103.8125 C-23.53362921 102.62374103 -26.89519838 101.13358413 -30.3203125 99.38671875 C-31.64313232 98.71515747 -31.64313232 98.71515747 -32.99267578 98.0300293 C-33.65509277 97.69011963 -34.31750977 97.35020996 -35 97 C-34.98316162 96.33991943 -34.96632324 95.67983887 -34.94897461 94.99975586 C-34.89837331 91.97771893 -34.9173875 88.95986042 -34.9375 85.9375 C-34.90978516 84.89916016 -34.88207031 83.86082031 -34.85351562 82.79101562 C-34.90902897 76.7800406 -34.90902897 76.7800406 -37.96923828 71.82373047 C-40.32741716 69.9713499 -40.32741716 69.9713499 -42.77563477 68.4777832 C-46.9533697 65.70225587 -49.42099384 61.73701849 -51 57 C-51.67093005 49.57577405 -51.61117377 43.11512583 -47 37 C-43.14272738 32.86796275 -38.87843458 30.3501349 -33.23828125 29.6640625 C-26.03421854 29.56788009 -20.41497341 30.65130319 -14 34 C-13.67 34.33 -13.34 34.66 -13 35 C-12.91363281 34.41992188 -12.82726563 33.83984375 -12.73828125 33.2421875 C-11.6929667 27.43062223 -10.30353181 24.09860173 -6 20 C-3.6875 19.125 -3.6875 19.125 -2 19 C-2 16.69 -2 14.38 -2 12 C-3.98 12 -5.96 12 -8 12 C-8.38218767 10.34385343 -8.71395102 8.67542976 -9 7 C-8 6 -8 6 -4.9375 5.9375 C-3.4834375 5.9684375 -3.4834375 5.9684375 -2 6 C-2 4.35 -2 2.7 -2 1 C-1.34 0.67 -0.68 0.34 0 0 Z " fill="#0B0B0B" transform="translate(66,14)"/>
<path d="M0 0 C6.24362171 2.91703344 10.94587886 7.19456701 15.75 12.0625 C16.33652344 12.64773437 16.92304687 13.23296875 17.52734375 13.8359375 C17.93082031 14.24070312 18.33429688 14.64546875 18.75 15.0625 C19.28367188 14.41023438 19.81734375 13.75796875 20.3671875 13.0859375 C26.18989021 6.25584678 32.12070489 0.9389317 40.75 -1.9375 C48.60113787 -2.546038 56.36114957 -3.14094927 62.75 2.0625 C66.3387486 5.46607975 68.04641882 8.58324375 68.25 13.5625 C67.70441837 21.83016006 63.50053947 27.44597734 57.75 33.0625 C52.82002801 37.0625 52.82002801 37.0625 49.75 37.0625 C49.75 38.0525 49.75 39.0425 49.75 40.0625 C45.51749587 39.46415492 41.77759009 38.40462204 37.75 37 C23.10183703 32.75280777 4.29970314 33.26571607 -9.90234375 39.1640625 C-12.25 40.0625 -12.25 40.0625 -16.25 40.0625 C-16.25 38.7425 -16.25 37.4225 -16.25 36.0625 C-17.82720126 34.47868659 -17.82720126 34.47868659 -19.9375 33.1875 C-25.64149442 29.16946499 -29.69554601 25.12819996 -31.25 18.0625 C-31.92081531 12.120993 -31.20002707 8.71639463 -27.70703125 3.828125 C-20.74135487 -4.61285549 -9.56518019 -3.55913681 0 0 Z " fill="#F0F0F0" transform="translate(48.25,49.9375)"/>
<path d="M0 0 C0.99 0.33 1.98 0.66 3 1 C3 2.65 3 4.3 3 6 C3.94875 5.95875 4.8975 5.9175 5.875 5.875 C9 6 9 6 11 8 C10.625 10.125 10.625 10.125 10 12 C7.69 12 5.38 12 3 12 C3 14.31 3 16.62 3 19 C3.556875 19.04125 4.11375 19.0825 4.6875 19.125 C8.67030477 20.63200721 11.12992356 24.25984712 13 28 C13.039992 29.99960012 13.04346799 32.00047242 13 34 C13.58265625 33.71125 14.1653125 33.4225 14.765625 33.125 C22.76828959 29.50115188 30.78688776 28.42401265 39.3125 31.0625 C45.07005594 33.62941035 49.46067932 38.11844046 52 43.875 C53.62849236 49.14724402 53.31992563 54.06561989 51.0546875 59.1015625 C48.12879724 64.12014248 44.24973876 68.08093256 40 72 C39.34 71.67 38.68 71.34 38 71 C38.62648438 70.27554688 39.25296875 69.55109375 39.8984375 68.8046875 C40.71570313 67.83789062 41.53296875 66.87109375 42.375 65.875 C43.18710938 64.92367187 43.99921875 63.97234375 44.8359375 62.9921875 C48.85367961 57.43697007 49.94033611 51.71496427 49 45 C46.89096551 40.34254883 44.13552471 37.7350641 39.53125 35.69921875 C32.29839947 33.70125541 24.53680689 33.84782288 17.6875 37 C10.90439362 40.92235641 5.48288433 46.48023528 0 52 C-0.51046875 51.34773438 -1.0209375 50.69546875 -1.546875 50.0234375 C-7.90580083 42.37919688 -14.59008803 38.13663732 -24 35 C-31.85610904 34.30123554 -38.26803089 34.03031615 -44.7421875 38.90625 C-45.36480469 39.44765625 -45.36480469 39.44765625 -46 40 C-46 38.68 -46 37.36 -46 36 C-40.313339 30.47581502 -34.82025088 29.5636321 -27.15625 29.66796875 C-22.4861302 30.1592561 -16.4513274 31.5486726 -13 35 C-12.91363281 34.41992188 -12.82726563 33.83984375 -12.73828125 33.2421875 C-11.6929667 27.43062223 -10.30353181 24.09860173 -6 20 C-3.6875 19.125 -3.6875 19.125 -2 19 C-2 16.69 -2 14.38 -2 12 C-3.98 12 -5.96 12 -8 12 C-8.38218767 10.34385343 -8.71395102 8.67542976 -9 7 C-8 6 -8 6 -4.9375 5.9375 C-3.4834375 5.9684375 -3.4834375 5.9684375 -2 6 C-2 4.35 -2 2.7 -2 1 C-1.34 0.67 -0.68 0.34 0 0 Z " fill="#030303" transform="translate(66,14)"/>
<path d="M0 0 C1.2684375 1.1446875 1.2684375 1.1446875 2.5625 2.3125 C3.366875 3.034375 4.17125 3.75625 5 4.5 C6.96254644 8.0325836 6.89396817 10.1254156 6.21875 14.046875 C4.19103109 21.04733313 -1.01677187 24.86516256 -6.64453125 29.125 C-10.4701676 30.75156427 -13.50001357 30.12114105 -17.4375 29.3125 C-18.23647705 29.15765137 -19.0354541 29.00280273 -19.85864258 28.84326172 C-22.39077013 28.33668881 -24.91413866 27.79847255 -27.4375 27.25 C-28.30761719 27.06373047 -29.17773438 26.87746094 -30.07421875 26.68554688 C-32.19596252 26.2308875 -34.31682571 25.77212195 -36.4375 25.3125 C-36.74764141 17.74982104 -35.48620906 14.07506341 -30.4375 8.3125 C-22.04812216 0.45505735 -11.28152691 -5.53820412 0 0 Z " fill="#040404" transform="translate(105.4375,53.6875)"/>
<path d="M0 0 C9.23659089 3.32746753 18.55751593 8.93733249 23 18 C23.15258789 20.2800293 23.15258789 20.2800293 23.09765625 22.69921875 C23.08355713 23.50576904 23.06945801 24.31231934 23.05493164 25.14331055 C23.0368042 25.75601807 23.01867676 26.36872559 23 27 C21.72125 27.19335938 20.4425 27.38671875 19.125 27.5859375 C17.41663655 27.84876265 15.70830489 28.11179451 14 28.375 C13.16082031 28.50132813 12.32164063 28.62765625 11.45703125 28.7578125 C7.42803739 29.38246271 3.60223311 30.09299571 -0.296875 31.29296875 C-4 32 -4 32 -6.828125 30.83984375 C-7.62734375 30.21207031 -8.4265625 29.58429688 -9.25 28.9375 C-10.08917969 28.28265625 -10.92835937 27.6278125 -11.79296875 26.953125 C-15.44147056 23.72436234 -18.71190792 20.55578833 -19.2734375 15.57421875 C-19.54949855 7.7277143 -19.54949855 7.7277143 -16.6875 3.9375 C-10.83064853 -0.28488129 -7.16533239 -1.02490325 0 0 Z " fill="#030303" transform="translate(41,52)"/>
<path d="M0 0 C0.33 0.99 0.66 1.98 1 3 C0.5359375 3.8353125 0.5359375 3.8353125 0.0625 4.6875 C-2.03789322 9.25894407 -1.43824132 14.27786087 -0.0625 19 C2.11291999 24.32820258 6.65896776 27.45325083 11 31 C12.01435446 31.98543646 13.0206121 32.97980427 14 34 C13.67 34.99 13.34 35.98 13 37 C14.14597656 36.65066406 15.29195312 36.30132812 16.47265625 35.94140625 C18.0025249 35.48150708 19.53247731 35.02188646 21.0625 34.5625 C21.81466797 34.33240234 22.56683594 34.10230469 23.34179688 33.86523438 C42.34179106 28.18991144 60.64562818 30.31120506 79 37 C79 36.01 79 35.02 79 34 C82 31.8125 82 31.8125 85 30 C85.66 30.33 86.32 30.66 87 31 C85 33 83 35 81 37 C80.76712992 38.68183948 80.58735834 40.3712416 80.4375 42.0625 C80.31181641 43.44115234 80.31181641 43.44115234 80.18359375 44.84765625 C80.12300781 45.55792969 80.06242187 46.26820312 80 47 C75.89401181 48.73433598 72.49728991 47.07121799 68.5625 45.625 C53.94218635 40.39216404 37.88151615 40.26053942 23 45 C21.47826172 45.82564453 21.47826172 45.82564453 19.92578125 46.66796875 C16.66374372 48.15308864 15.34685545 48.08280617 12 47 C12.04833984 45.82244141 12.04833984 45.82244141 12.09765625 44.62109375 C12.14534319 38.2354776 12.14534319 38.2354776 9.10546875 32.890625 C7.53000105 31.75148086 5.92599238 30.65084536 4.296875 29.58984375 C0.12221768 26.70024251 -2.39558615 22.81324154 -4 18 C-4.1447963 16.04524991 -4.22067502 14.0848862 -4.25 12.125 C-4.28867188 10.58199219 -4.28867188 10.58199219 -4.328125 9.0078125 C-3.9248592 5.31120932 -2.64771279 2.64771279 0 0 Z " fill="#0D0D0D" transform="translate(19,53)"/>
<path d="M0 0 C1.72621582 0.0002417 1.72621582 0.0002417 3.48730469 0.00048828 C12.42720705 0.12000569 20.04006846 1.33148645 28.4375 4.375 C30.4370388 5.04304868 32.43690183 5.71013055 34.4375 6.375 C31.46491249 8.81726673 28.68077468 10.21282665 25.0625 11.5 C24.14726563 11.83257812 23.23203125 12.16515625 22.2890625 12.5078125 C7.02444965 17.14992764 -12.99924944 16.12202311 -27.3125 9.1875 C-28.385 8.589375 -29.4575 7.99125 -30.5625 7.375 C-21.05484484 1.03656323 -11.16465307 -0.01454152 0 0 Z " fill="#020202" transform="translate(63.5625,104.625)"/>
<path d="M0 0 C0.98226562 0.31324219 1.96453125 0.62648438 2.9765625 0.94921875 C8.03051392 2.75013383 8.03051392 2.75013383 10 4 C10.765625 6.12890625 10.765625 6.12890625 11 8 C6.30415307 7.43886106 2.16191393 6.4325437 -2.3125 4.9375 C-16.18412824 0.86936079 -33.97647414 0.64348041 -47.484375 6.02734375 C-50.30650303 7.11850816 -53.0101235 7.58473937 -56 8 C-56 6.68 -56 5.36 -56 4 C-38.34229311 -4.07385551 -18.71575869 -6.02493602 0 0 Z " fill="#E9E9E9" transform="translate(88,103)"/>
<path d="M0 0 C0 1.32 0 2.64 0 4 C-5.09469013 3.08751819 -9.91854145 1.50251954 -14.84375 -0.0625 C-28.38703448 -4.08525777 -46.4934051 -3.77049877 -59.23828125 2.625 C-62 4 -62 4 -64.375 3.6875 C-64.91125 3.460625 -65.4475 3.23375 -66 3 C-65.76953125 1.1328125 -65.76953125 1.1328125 -65 -1 C-48.0983948 -11.84253919 -16.76190659 -9.72190582 0 0 Z " fill="#F2F2F2" transform="translate(98,97)"/>
<path d="M0 0 C0 3 0 3 -1.75 5.04296875 C-2.4925 5.75066406 -3.235 6.45835938 -4 7.1875 C-4.7425 7.90292969 -5.485 8.61835937 -6.25 9.35546875 C-7.11625 10.16951172 -7.11625 10.16951172 -8 11 C-8.66 10.67 -9.32 10.34 -10 10 C-3.84965831 2.51708428 -3.84965831 2.51708428 0 0 Z " fill="#010101" transform="translate(114,75)"/>
</svg>
