<?xml version="1.0" encoding="UTF-8"?>
<svg version="1.1" xmlns="http://www.w3.org/2000/svg" width="133" height="133">
<path d="M0 0 C4.37522824 2.38648813 4.37522824 2.38648813 6 5 C6.89480067 9.9728745 6.82559534 13.76160699 4 18 C4.72316406 18.25007813 5.44632813 18.50015625 6.19140625 18.7578125 C14.58688438 22.47097251 20.31458482 29.73710788 24.00390625 37.94140625 C25.98800028 44.03374203 26.0580391 49.94742809 23.6875 55.9375 C20.98451327 60.84292035 20.98451327 60.84292035 19 63 C18.34 63 17.68 63 17 63 C17.639375 64.11375 18.27875 65.2275 18.9375 66.375 C21.26783182 71.09434106 22.53729749 75.70898576 22 81 C19.19058399 84.96623437 16.43768426 86.32652984 12 88 C12.56396484 88.01981934 13.12792969 88.03963867 13.70898438 88.06005859 C16.30639574 88.15631811 18.90311103 88.26558052 21.5 88.375 C22.386875 88.4059375 23.27375 88.436875 24.1875 88.46875 C31.57964699 88.79487413 38.56040868 89.24604999 44.5 94.125 C45.1703125 94.66382812 45.840625 95.20265625 46.53125 95.7578125 C47.0159375 96.16773437 47.500625 96.57765625 48 97 C47.6875 99.375 47.6875 99.375 47 102 C43.30594568 104.46270288 41.36722928 104.22985417 37 104 C36.41532959 103.83693359 35.83065918 103.67386719 35.22827148 103.50585938 C32.07615243 102.79026929 29.01480721 102.79471802 25.78515625 102.71875 C25.09240097 102.70034058 24.39964569 102.68193115 23.68589783 102.66296387 C21.47818179 102.60442412 19.27039006 102.55153108 17.0625 102.5 C14.15740027 102.43203331 11.25252663 102.35833817 8.34765625 102.28125 C7.05867432 102.25095703 5.76969238 102.22066406 4.44165039 102.18945312 C1 102 1 102 -1.70922852 101.41992188 C-4.26326172 100.95174143 -5.51984386 101.32791389 -8 102 C-10.41457543 102.13744942 -12.83217781 102.22465755 -15.25 102.28125 C-15.94512695 102.29965942 -16.64025391 102.31806885 -17.35644531 102.33703613 C-20.31951184 102.41537046 -23.28279595 102.48331721 -26.24609375 102.55224609 C-28.41416957 102.60416179 -30.58206395 102.66133537 -32.75 102.71875 C-34.04421875 102.74904297 -35.3384375 102.77933594 -36.671875 102.81054688 C-39.33781605 102.96230526 -41.46148235 103.28393584 -44 104 C-50.272 104.448 -50.272 104.448 -53.4375 102.5 C-53.953125 102.005 -54.46875 101.51 -55 101 C-54.51946314 96.67516825 -53.34218019 94.76923502 -50 92 C-43.93873402 88.16119821 -36.05944624 88.72408619 -29.125 88.4375 C-28.15046875 88.39431641 -27.1759375 88.35113281 -26.171875 88.30664062 C-23.78137198 88.20117726 -21.39077556 88.09905825 -19 88 C-20.093125 87.566875 -21.18625 87.13375 -22.3125 86.6875 C-25.07425492 85.49147265 -27.23994983 84.53598627 -29 82 C-30.47312681 75.39083647 -28.04986522 69.75934371 -25 64 C-25.78375 63.0925 -26.5675 62.185 -27.375 61.25 C-32.22527634 55.63389055 -32.48961679 50.95616796 -32.3828125 43.6171875 C-31.56271123 35.86806734 -27.44847247 29.44847247 -22 24 C-18.74577248 21.5418066 -15.40910767 19.23743377 -12 17 C-12.32355469 16.40058594 -12.64710937 15.80117188 -12.98046875 15.18359375 C-14.34983447 12.25073767 -14.32746828 10.20918919 -14 7 C-12.73896101 4.22571423 -11.68910086 2.51682565 -9.25 0.6875 C-5.9260257 -0.32815881 -3.46313738 -0.41796486 0 0 Z " fill="#000000" transform="translate(70,13)"/>
<path d="M0 0 C0.33 0 0.66 0 1 0 C1.3125 2.6875 1.3125 2.6875 1 6 C-1.96767606 9.73079276 -4.60078419 11.3733992 -9 13 C-8.43603516 13.01981934 -7.87207031 13.03963867 -7.29101562 13.06005859 C-4.69360426 13.15631811 -2.09688897 13.26558052 0.5 13.375 C1.386875 13.4059375 2.27375 13.436875 3.1875 13.46875 C10.57964699 13.79487413 17.56040868 14.24604999 23.5 19.125 C24.1703125 19.66382812 24.840625 20.20265625 25.53125 20.7578125 C26.0159375 21.16773437 26.500625 21.57765625 27 22 C26.6875 24.375 26.6875 24.375 26 27 C22.30594568 29.46270288 20.36722928 29.22985417 16 29 C15.41532959 28.83693359 14.83065918 28.67386719 14.22827148 28.50585938 C11.07615243 27.79026929 8.01480721 27.79471802 4.78515625 27.71875 C4.09240097 27.70034058 3.39964569 27.68193115 2.68589783 27.66296387 C0.47818179 27.60442412 -1.72960994 27.55153108 -3.9375 27.5 C-6.84259973 27.43203331 -9.74747337 27.35833817 -12.65234375 27.28125 C-13.94132568 27.25095703 -15.23030762 27.22066406 -16.55834961 27.18945312 C-20 27 -20 27 -22.70922852 26.41992188 C-25.26326172 25.95174143 -26.51984386 26.32791389 -29 27 C-31.41457543 27.13744942 -33.83217781 27.22465755 -36.25 27.28125 C-37.29269043 27.30886414 -37.29269043 27.30886414 -38.35644531 27.33703613 C-41.31951184 27.41537046 -44.28279595 27.48331721 -47.24609375 27.55224609 C-49.41416957 27.60416179 -51.58206395 27.66133537 -53.75 27.71875 C-55.04421875 27.74904297 -56.3384375 27.77933594 -57.671875 27.81054688 C-60.33781605 27.96230526 -62.46148235 28.28393584 -65 29 C-71.272 29.448 -71.272 29.448 -74.4375 27.5 C-74.953125 27.005 -75.46875 26.51 -76 26 C-75.51946314 21.67516825 -74.34218019 19.76923502 -71 17 C-64.93873402 13.16119821 -57.05944624 13.72408619 -50.125 13.4375 C-49.15046875 13.39431641 -48.1759375 13.35113281 -47.171875 13.30664062 C-44.78137198 13.20117726 -42.39077556 13.09905825 -40 13 C-41.11503906 12.53207031 -42.23007812 12.06414062 -43.37890625 11.58203125 C-48.5327381 9.33035714 -48.5327381 9.33035714 -50 7 C-50.04275752 5.0004571 -50.04587187 2.99947387 -50 1 C-49.08251732 1.00333092 -49.08251732 1.00333092 -48.14649963 1.00672913 C-41.80429669 1.02878122 -35.46210456 1.04390627 -29.11987305 1.05493164 C-26.75007688 1.05997341 -24.38028385 1.06680665 -22.01049805 1.07543945 C-18.61245961 1.0875119 -15.21446215 1.09322971 -11.81640625 1.09765625 C-10.74975235 1.10281754 -9.68309845 1.10797882 -8.5841217 1.11329651 C-7.60318039 1.11337204 -6.62223907 1.11344757 -5.61157227 1.11352539 C-4.74331314 1.115746 -3.87505402 1.11796661 -2.98048401 1.12025452 C-0.99856319 1.21954667 -0.99856319 1.21954667 0 0 Z " fill="#030303" transform="translate(91,88)"/>
<path d="M0 0 C15.51 0 31.02 0 47 0 C47 1.32 47 2.64 47 4 C31.16 4 15.32 4 -1 4 C-0.67 2.68 -0.34 1.36 0 0 Z " fill="#FDFDFD" transform="translate(43,86)"/>
<path d="M0 0 C10.56 0 21.12 0 32 0 C32.495 1.98 32.495 1.98 33 4 C32 5 32 5 28.94897461 5.11352539 C27.60008729 5.11336634 26.25119386 5.10767612 24.90234375 5.09765625 C23.83905602 5.09553383 23.83905602 5.09553383 22.75428772 5.09336853 C20.48198288 5.08775443 18.20977525 5.07519963 15.9375 5.0625 C14.40039204 5.05748681 12.86328255 5.05292359 11.32617188 5.04882812 C7.55074358 5.03778042 3.77538829 5.02050641 0 5 C0 3.35 0 1.7 0 0 Z " fill="#E2E2E2" transform="translate(50,74)"/>
<path d="M0 0 C2.0625 0.4375 2.0625 0.4375 4 1 C4 2.98 4 4.96 4 7 C5.98 7 7.96 7 10 7 C10.5625 8.9375 10.5625 8.9375 11 11 C10 12 10 12 6.9375 12.0625 C5.968125 12.041875 4.99875 12.02125 4 12 C4 13.98 4 15.96 4 18 C2.0625 18.5625 2.0625 18.5625 0 19 C-1 18 -1 18 -1.0625 14.9375 C-1.041875 13.968125 -1.02125 12.99875 -1 12 C-2.98 12 -4.96 12 -7 12 C-7.5625 10.0625 -7.5625 10.0625 -8 8 C-7 7 -7 7 -3.9375 6.9375 C-2.4834375 6.9684375 -2.4834375 6.9684375 -1 7 C-1.020625 6.030625 -1.04125 5.06125 -1.0625 4.0625 C-1 1 -1 1 0 0 Z " fill="#E3E3E3" transform="translate(65,43)"/>
</svg>
