<?xml version="1.0" encoding="UTF-8"?>
<svg version="1.1" xmlns="http://www.w3.org/2000/svg" width="133" height="133">
<path d="M0 0 C3.85981588 2.42410867 6.54307697 4.62923092 8 9 C7.94436672 10.77191988 7.85768858 12.54298077 7.75 14.3125 C7.68388728 19.91004328 9.1003801 21.91900243 13 26 C15.88370557 31.45200585 17.20548269 37.05478392 15.35546875 43.109375 C14.61910626 45.09719099 13.81999586 47.04560572 13 49 C12.67 49.99 12.34 50.98 12 52 C12.49628906 52.37769531 12.99257812 52.75539062 13.50390625 53.14453125 C22.29179484 60.2648888 27.63594622 68.96774902 30 80 C30.495 87.425 30.495 87.425 31 95 C6.58 95 -17.84 95 -43 95 C-43 80.34143599 -40.38162461 67.03047615 -30 56 C-28.04514223 54.26288629 -26.04838124 52.62939417 -24 51 C-24.66 49.906875 -25.32 48.81375 -26 47.6875 C-28.87077381 41.89468857 -29.27426346 35.77927893 -27.19921875 29.625 C-25.8748112 26.8432328 -24.70252371 24.61052656 -22.359375 22.57421875 C-20.7838242 21.06774099 -20.7838242 21.06774099 -20.84765625 18.80078125 C-20.91855469 17.97964844 -20.98945312 17.15851562 -21.0625 16.3125 C-21.19376589 11.02325684 -20.39296885 7.15758155 -17 3 C-11.90247317 -1.17698022 -6.22425223 -2.13784692 0 0 Z " fill="#000000" transform="translate(71,24)"/>
</svg>
