<?xml version="1.0" encoding="UTF-8"?>
<svg version="1.1" xmlns="http://www.w3.org/2000/svg" width="133" height="133">
<path d="M0 0 C2.5 1.375 2.5 1.375 3.8125 3.8125 C4.5 6.375 4.5 6.375 4.5 9.375 C5.10585937 9.40078125 5.71171875 9.4265625 6.3359375 9.453125 C17.76890432 10.22704891 26.28383504 14.36631395 34.5 22.375 C49.54411961 40.02403526 51.69102449 63.12474652 51.625 85.375 C51.6285678 86.72265719 51.63247159 88.07031353 51.63671875 89.41796875 C51.63542969 90.68253906 51.63414063 91.94710937 51.6328125 93.25 C51.63168457 94.40242188 51.63055664 95.55484375 51.62939453 96.7421875 C51.5 99.375 51.5 99.375 50.5 100.375 C48.29675026 100.47460152 46.0902651 100.50299757 43.88476562 100.50439453 C43.19372238 100.50614685 42.50267914 100.50789917 41.79069519 100.50970459 C39.49585493 100.51412254 37.20109111 100.51118533 34.90625 100.5078125 C33.31823715 100.50848556 31.73022441 100.50945559 30.14221191 100.51071167 C26.8098045 100.51218857 23.47742384 100.51003436 20.14501953 100.50537109 C15.8640149 100.4996738 11.58307295 100.50295285 7.30207062 100.50894356 C4.02166264 100.5125494 0.74126963 100.51141048 -2.53913879 100.50881577 C-4.1180675 100.50814656 -5.69699754 100.5089747 -7.27592468 100.51129532 C-9.47890853 100.51382223 -11.68178949 100.50998075 -13.88476562 100.50439453 C-15.76887146 100.50320114 -15.76887146 100.50320114 -17.69104004 100.50198364 C-20.5 100.375 -20.5 100.375 -21.5 99.375 C-22.58718476 91.6870506 -20.96185289 85.67127635 -16.5 79.375 C-14.23768897 76.94988398 -11.92531861 74.63489356 -9.53027344 72.34448242 C-2.95452282 66.02983438 0.10578326 60.36457659 1.5 51.375 C0.448125 52.35339844 0.448125 52.35339844 -0.625 53.3515625 C-9.31657103 61.35819994 -9.31657103 61.35819994 -13.75 64.5 C-17.42464293 67.13878679 -20.19585623 70.24784772 -23.0546875 73.73828125 C-25.18808811 76.15421329 -26.24619621 76.35913726 -29.5 76.5625 C-32.5 76.375 -32.5 76.375 -34.5 74.375 C-35.946822 74.04820816 -37.40839253 73.78419648 -38.875 73.5625 C-42.37787917 72.85291355 -43.34016476 72.53083936 -46 69.9375 C-48.81743413 65.12438336 -49.111579 60.822044 -48.5 55.375 C-47.50506391 52.15995288 -46.09070831 49.24298863 -44.5625 46.25 C-44.1600708 45.43249268 -43.7576416 44.61498535 -43.34301758 43.77270508 C-38.95289105 35.00353605 -34.1530133 26.22251073 -28.2421875 18.37890625 C-26.15365062 14.77781913 -26.16747991 12.73688492 -26.4375 8.625 C-26.65234375 5.203125 -26.65234375 5.203125 -26.5 2.375 C-23.5 0.375 -23.5 0.375 -21.125 0.375 C-17.32400342 1.8229987 -15.91305648 4.13460987 -13.5 7.375 C-9.97808373 7.11411731 -9.28724732 6.13185408 -6.875 3.375 C-6.09125 2.385 -5.3075 1.395 -4.5 0.375 C-2.5 -0.625 -2.5 -0.625 0 0 Z " fill="#010101" transform="translate(63.5,17.625)"/>
<path d="M0 0 C12.00547513 2.51585324 19.78603815 8.04712732 27 18 C34.6634059 31.29618581 38.15922014 46.51340555 38.09765625 61.78125 C38.0962413 62.48020386 38.09482635 63.17915771 38.09336853 63.89929199 C38.0878367 66.09957429 38.07529777 68.29974923 38.0625 70.5 C38.05747616 72.00520685 38.05291482 73.51041532 38.04882812 75.015625 C38.03788977 78.67711735 38.02067359 82.33854817 38 86 C36.02 86 34.04 86 32 86 C31.970271 84.69349487 31.970271 84.69349487 31.93994141 83.3605957 C31.86085758 80.06332459 31.77414677 76.76642297 31.68261719 73.46948242 C31.64482947 72.05484477 31.60989934 70.64012728 31.578125 69.2253418 C31.13188217 49.58368452 28.92154507 29.50532521 15.3828125 14.16796875 C10.69652737 9.73954141 4.90521425 7.41334253 -1 5 C-0.67 3.35 -0.34 1.7 0 0 Z " fill="#F6F6F6" transform="translate(73,30)"/>
<path d="M0 0 C2.0625 0.4375 2.0625 0.4375 4 1 C4.75 2.625 4.75 2.625 5 5 C3.375 8.1875 3.375 8.1875 1 11 C-1.75 11.875 -1.75 11.875 -4 12 C-4.75 9.875 -4.75 9.875 -5 7 C-3.51209453 4.42096386 -2.11387131 2.11387131 0 0 Z " fill="#EFEFEF" transform="translate(43,39)"/>
<path d="M0 0 C2.125 0.375 2.125 0.375 4 1 C4.38218767 2.65614657 4.71395102 4.32457024 5 6 C4 7 4 7 1.4375 7.0625 C0.2309375 7.0315625 0.2309375 7.0315625 -1 7 C-1.625 4.625 -1.625 4.625 -2 2 C-1.34 1.34 -0.68 0.68 0 0 Z " fill="#F0F0F0" transform="translate(25,71)"/>
</svg>
