<?xml version="1.0" encoding="UTF-8"?>
<svg version="1.1" xmlns="http://www.w3.org/2000/svg" width="134" height="133">
<path d="M0 0 C1.90072266 0.02126953 1.90072266 0.02126953 3.83984375 0.04296875 C5.74443359 0.05263672 5.74443359 0.05263672 7.6875 0.0625 C10.77734375 0.23046875 10.77734375 0.23046875 11.77734375 1.23046875 C11.77734375 2.88046875 11.77734375 4.53046875 11.77734375 6.23046875 C15.07734375 6.23046875 18.37734375 6.23046875 21.77734375 6.23046875 C21.77734375 4.58046875 21.77734375 2.93046875 21.77734375 1.23046875 C23.29943965 -0.29162715 24.65944457 0.10087354 26.77734375 0.09765625 C27.58171875 0.09636719 28.38609375 0.09507813 29.21484375 0.09375 C30.06046875 0.09761719 30.90609375 0.10148437 31.77734375 0.10546875 C33.04578125 0.09966797 33.04578125 0.09966797 34.33984375 0.09375 C35.14421875 0.09503906 35.94859375 0.09632812 36.77734375 0.09765625 C37.51984375 0.09878418 38.26234375 0.09991211 39.02734375 0.10107422 C40.77734375 0.23046875 40.77734375 0.23046875 41.77734375 1.23046875 C41.77734375 2.88046875 41.77734375 4.53046875 41.77734375 6.23046875 C45.07734375 6.23046875 48.37734375 6.23046875 51.77734375 6.23046875 C51.77734375 4.58046875 51.77734375 2.93046875 51.77734375 1.23046875 C53.71076322 -0.70295072 57.15213496 0.05597742 59.71484375 0.04296875 C60.98199219 0.02878906 62.24914062 0.01460937 63.5546875 0 C66.77734375 0.23046875 66.77734375 0.23046875 68.77734375 2.23046875 C69.13974155 5.01974358 69.33139851 7.62036147 69.40234375 10.41796875 C69.46035156 11.16111328 69.51835938 11.90425781 69.578125 12.66992188 C69.63333401 15.09274811 69.54704424 16.92463913 68.77734375 19.23046875 C66.98071289 20.67211914 66.98071289 20.67211914 64.7890625 22.08984375 C62.48632286 23.87298166 61.03339488 25.21577786 60.30834961 28.08901978 C59.70140349 32.9359908 59.76979862 37.78888288 59.89916992 42.66430664 C59.96478505 45.29061902 59.96078013 47.91013519 59.94726562 50.53710938 C59.96333392 52.21749229 59.98338177 53.89784286 60.0078125 55.578125 C60.00710251 56.35640152 60.00639252 57.13467804 60.00566101 57.9365387 C60.20508588 63.71883367 61.83555369 66.05026397 65.77734375 70.23046875 C66.265625 73.00390625 66.265625 73.00390625 66.08984375 75.60546875 C66.04472656 76.47945313 65.99960938 77.3534375 65.953125 78.25390625 C65.89511719 78.90617187 65.83710937 79.5584375 65.77734375 80.23046875 C66.89109375 80.18921875 68.00484375 80.14796875 69.15234375 80.10546875 C72.77734375 80.23046875 72.77734375 80.23046875 74.77734375 82.23046875 C75.04296875 84.76171875 75.04296875 84.76171875 75.02734375 87.73046875 C75.03507812 89.2 75.03507812 89.2 75.04296875 90.69921875 C74.77734375 93.23046875 74.77734375 93.23046875 72.77734375 95.23046875 C70.1681097 95.42886475 67.66501848 95.50322851 65.0546875 95.48925781 C63.85937912 95.49451477 63.85937912 95.49451477 62.6399231 95.49987793 C59.99814213 95.50870153 57.35662758 95.50284393 54.71484375 95.49609375 C52.88403268 95.49744022 51.05322195 95.4993806 49.22241211 95.50189209 C45.38228965 95.5048442 41.54226012 95.50054292 37.70214844 95.49121094 C32.77215681 95.47981635 27.84238292 95.48637535 22.91239929 95.49835587 C19.13096466 95.50557212 15.34958192 95.50328762 11.56814575 95.49810028 C9.75000991 95.49676313 7.93186941 95.49841377 6.11373901 95.50305939 C3.57569849 95.50812079 1.03801391 95.50041998 -1.5 95.48925781 C-2.63464188 95.49533051 -2.63464188 95.49533051 -3.79220581 95.50152588 C-8.99412764 95.45899736 -8.99412764 95.45899736 -11.22265625 93.23046875 C-11.48828125 90.69921875 -11.48828125 90.69921875 -11.47265625 87.73046875 C-11.4778125 86.75078125 -11.48296875 85.77109375 -11.48828125 84.76171875 C-11.22265625 82.23046875 -11.22265625 82.23046875 -9.22265625 80.23046875 C-5.59765625 80.10546875 -5.59765625 80.10546875 -2.22265625 80.23046875 C-2.28066406 79.57820313 -2.33867188 78.9259375 -2.3984375 78.25390625 C-2.44355469 77.37992187 -2.48867188 76.5059375 -2.53515625 75.60546875 C-2.59316406 74.74695313 -2.65117188 73.8884375 -2.7109375 73.00390625 C-2.22265625 70.23046875 -2.22265625 70.23046875 0.25976562 67.59790039 C3.51043767 63.81575818 3.5512919 60.41982814 3.546875 55.578125 C3.56472298 54.35058754 3.56472298 54.35058754 3.58293152 53.09825134 C3.59941378 51.3745764 3.6028619 49.65073288 3.59399414 47.92700195 C3.58985789 45.30194162 3.65498015 42.68456004 3.72460938 40.06054688 C4.12540929 31.44475235 4.12540929 31.44475235 0.9609375 23.78979492 C-1.18979196 22.07483456 -1.18979196 22.07483456 -3.42602539 20.67211914 C-5.22265625 19.23046875 -5.22265625 19.23046875 -5.91186523 17.16577148 C-6.07637415 14.86833642 -6.02683114 12.71339813 -5.84765625 10.41796875 C-5.82832031 9.65548828 -5.80898438 8.89300781 -5.7890625 8.10742188 C-5.4752433 0.39156285 -5.4752433 0.39156285 0 0 Z " fill="#000000" transform="translate(35.22265625,22.76953125)"/>
<path d="M0 0 C17.16 0 34.32 0 52 0 C52.495 0.99 52.495 0.99 53 2 C53.99 2.33 54.98 2.66 56 3 C58.6336239 5.33263831 59.90176435 7.01159822 60.25390625 10.5546875 C60.25037402 13.04844148 60.17387101 15.51267863 60 18 C61.11375 17.95875 62.2275 17.9175 63.375 17.875 C67 18 67 18 69 20 C69.265625 22.53125 69.265625 22.53125 69.25 25.5 C69.25773437 26.96953125 69.25773437 26.96953125 69.265625 28.46875 C69 31 69 31 67 33 C64.39076595 33.198396 61.88767473 33.27275976 59.27734375 33.25878906 C58.4804715 33.2622937 57.68359924 33.26579834 56.86257935 33.26940918 C54.22079838 33.27823278 51.57928383 33.27237518 48.9375 33.265625 C47.10668893 33.26697147 45.2758782 33.26891185 43.44506836 33.27142334 C39.6049459 33.27437545 35.76491637 33.27007417 31.92480469 33.26074219 C26.99481306 33.2493476 22.06503917 33.2559066 17.13505554 33.26788712 C13.35362091 33.27510337 9.57223817 33.27281887 5.790802 33.26763153 C3.97266616 33.26629438 2.15452566 33.26794502 0.33639526 33.27259064 C-2.20164526 33.27765204 -4.73932984 33.26995123 -7.27734375 33.25878906 C-8.03377167 33.26283752 -8.79019958 33.26688599 -9.56954956 33.27105713 C-14.77147139 33.22852861 -14.77147139 33.22852861 -17 31 C-17.265625 28.46875 -17.265625 28.46875 -17.25 25.5 C-17.25515625 24.5203125 -17.2603125 23.540625 -17.265625 22.53125 C-17 20 -17 20 -15 18 C-11.375 17.875 -11.375 17.875 -8 18 C-8.08121094 17.34773438 -8.16242187 16.69546875 -8.24609375 16.0234375 C-8.75668859 8.95847221 -8.75668859 8.95847221 -6.4765625 6.0703125 C-4.5625 4.5 -4.5625 4.5 -2.62890625 3.15625 C-0.84499002 2.08206126 -0.84499002 2.08206126 0 0 Z " fill="#020202" transform="translate(41,85)"/>
<path d="M0 0 C1.90072266 0.02126953 1.90072266 0.02126953 3.83984375 0.04296875 C5.74443359 0.05263672 5.74443359 0.05263672 7.6875 0.0625 C10.77734375 0.23046875 10.77734375 0.23046875 11.77734375 1.23046875 C11.77734375 2.88046875 11.77734375 4.53046875 11.77734375 6.23046875 C15.07734375 6.23046875 18.37734375 6.23046875 21.77734375 6.23046875 C21.77734375 4.58046875 21.77734375 2.93046875 21.77734375 1.23046875 C23.29943965 -0.29162715 24.65944457 0.10087354 26.77734375 0.09765625 C27.58171875 0.09636719 28.38609375 0.09507813 29.21484375 0.09375 C30.06046875 0.09761719 30.90609375 0.10148437 31.77734375 0.10546875 C33.04578125 0.09966797 33.04578125 0.09966797 34.33984375 0.09375 C35.14421875 0.09503906 35.94859375 0.09632812 36.77734375 0.09765625 C37.51984375 0.09878418 38.26234375 0.09991211 39.02734375 0.10107422 C40.77734375 0.23046875 40.77734375 0.23046875 41.77734375 1.23046875 C41.77734375 2.88046875 41.77734375 4.53046875 41.77734375 6.23046875 C45.07734375 6.23046875 48.37734375 6.23046875 51.77734375 6.23046875 C51.77734375 4.58046875 51.77734375 2.93046875 51.77734375 1.23046875 C53.71076322 -0.70295072 57.15213496 0.05597742 59.71484375 0.04296875 C60.98199219 0.02878906 62.24914062 0.01460937 63.5546875 0 C66.77734375 0.23046875 66.77734375 0.23046875 68.77734375 2.23046875 C70.61171374 16.34910336 70.61171374 16.34910336 67.09375 21.875 C62.55468333 25.83106728 58.62682746 27.32880984 52.62255859 27.47094727 C51.57071381 27.49669327 50.51886902 27.52243927 49.43515015 27.54896545 C44.61493119 27.63344422 39.7948597 27.69901405 34.97412109 27.74536133 C32.43675736 27.77696896 29.8995406 27.82468835 27.36279297 27.88891602 C23.69572644 27.98046122 20.03132021 28.01903056 16.36328125 28.046875 C14.67529922 28.10410484 14.67529922 28.10410484 12.95321655 28.16249084 C5.54122303 28.14433086 1.7467779 26.53163341 -3.60368347 21.38435364 C-6.2901313 17.81029764 -6.3004626 14.67536429 -5.91015625 10.35546875 C-5.88630859 9.5975 -5.86246094 8.83953125 -5.83789062 8.05859375 C-5.47637073 0.39164348 -5.47637073 0.39164348 0 0 Z " fill="#000000" transform="translate(35.22265625,22.76953125)"/>
<path d="M0 0 C23.1 0 46.2 0 70 0 C70.495 1.98 70.495 1.98 71 4 C69.90081184 4.98475214 68.7954398 5.96260473 67.6875 6.9375 C67.07261719 7.48277344 66.45773438 8.02804688 65.82421875 8.58984375 C62.63321445 11.05655157 59.72129889 11.14541824 55.8293457 11.22460938 C54.77427322 11.24712769 53.71920074 11.269646 52.63215637 11.29284668 C47.80212716 11.36398031 42.9722491 11.42137497 38.1418457 11.45996094 C35.59770883 11.48656205 33.05367969 11.52747987 30.51000977 11.58300781 C26.83565823 11.66225713 23.16336294 11.6952918 19.48828125 11.71875 C17.7925573 11.76823792 17.7925573 11.76823792 16.06257629 11.81872559 C10.19726336 11.8039424 6.7347493 11.38233297 2.21948242 7.45507812 C1.11813121 6.33031339 0.03358192 5.18734099 -1 4 C-0.67 2.68 -0.34 1.36 0 0 Z " fill="#181818" transform="translate(32,39)"/>
<path d="M0 0 C23.1 0 46.2 0 70 0 C70 0.99 70 1.98 70 3 C46.9 3 23.8 3 0 3 C0 2.01 0 1.02 0 0 Z " fill="#E2E2E2" transform="translate(32,39)"/>
<path d="M0 0 C21.12 0 42.24 0 64 0 C64 0.99 64 1.98 64 3 C42.88 3 21.76 3 0 3 C0 2.01 0 1.02 0 0 Z " fill="#F8F8F8" transform="translate(35,103)"/>
<path d="M0 0 C19.14 0 38.28 0 58 0 C58 0.99 58 1.98 58 3 C38.86 3 19.72 3 0 3 C0 2.01 0 1.02 0 0 Z " fill="#EDEDED" transform="translate(38,91)"/>
<path d="M0 0 C17.82 0 35.64 0 54 0 C53.67 0.99 53.34 1.98 53 3 C35.84 3 18.68 3 1 3 C0.67 2.01 0.34 1.02 0 0 Z " fill="#E5E5E5" transform="translate(40,47)"/>
<path d="M0 0 C17.16 0 34.32 0 52 0 C52 0.99 52 1.98 52 3 C34.84 3 17.68 3 0 3 C0 2.01 0 1.02 0 0 Z " fill="#E8E8E8" transform="translate(41,85)"/>
</svg>
