<?xml version="1.0" encoding="UTF-8"?>
<svg version="1.1" xmlns="http://www.w3.org/2000/svg" width="134" height="133">
<path d="M0 0 C2.73897267 2.99575136 3.0088886 4.49335007 2.9375 8.5625 C2 12 2 12 -0.11621094 13.80761719 C-2.34406629 15.90100584 -2.34406629 15.90100584 -1.90332031 19.02441406 C-1.49484863 20.75256348 -1.49484863 20.75256348 -1.078125 22.515625 C-0.79453125 23.76601563 -0.5109375 25.01640625 -0.21875 26.3046875 C0.1036673 27.61991418 0.42659049 28.93501695 0.75 30.25 C1.05941753 31.58023647 1.3667346 32.91096339 1.671875 34.2421875 C2.42735947 37.50021427 3.20405035 40.75166494 4 44 C5.76114936 39.76255441 7.47821875 35.50860348 9.1875 31.25 C9.68958984 30.0434375 10.19167969 28.836875 10.70898438 27.59375 C11.16982422 26.43359375 11.63066406 25.2734375 12.10546875 24.078125 C12.54012451 23.00981445 12.97478027 21.94150391 13.42260742 20.84082031 C14.33610966 17.98455108 14.33610966 17.98455108 12.64550781 15.74511719 C12.10249023 15.16922852 11.55947266 14.59333984 11 14 C10.40649533 11.26239288 10.49706557 8.75201199 11 6 C13.04305692 2.93541462 14.44079802 2.17846872 17.9375 1.0625 C21.62880732 0.9871672 23.1126081 1.75425074 26 4 C28.34168764 7.51253146 28.49623677 8.86469356 28 13 C26.1875 15.875 26.1875 15.875 24 18 C23.01 18 22.02 18 21 18 C21.14070156 21.16691607 21.28851269 24.33346378 21.4375 27.5 C21.47681641 28.386875 21.51613281 29.27375 21.55664062 30.1875 C21.81084087 35.50615127 22.26676337 40.7256256 23 46 C24.60473003 43.4378513 26.20880182 40.87529445 27.8125 38.3125 C28.49022461 37.2306543 28.49022461 37.2306543 29.18164062 36.12695312 C30.06092351 34.72138414 30.93763184 33.3142007 31.81152344 31.90527344 C32.81760526 30.2924011 33.84586414 28.69339489 34.87890625 27.09765625 C35.24886719 26.40542969 35.61882812 25.71320312 36 25 C35.36959957 23.64914193 34.69748583 22.31747324 34 21 C34.17667812 17.6431158 34.37850745 15.03582092 36.125 12.125 C39.08306112 10.35016333 41.57800046 10.11799998 45 10 C47.8125 11 47.8125 11 50 13 C51.83504137 17.05238304 52.27085638 19.08585971 51 23.375 C49 26 49 26 45.8125 26.875 C44.4203125 26.936875 44.4203125 26.936875 43 27 C42.93304932 27.8511438 42.93304932 27.8511438 42.86474609 28.71948242 C42.22088141 36.00765274 40.99708191 43.12948787 39.625 50.3125 C39.31175781 52.04209961 39.31175781 52.04209961 38.9921875 53.80664062 C38.78078125 54.91845703 38.569375 56.03027344 38.3515625 57.17578125 C38.16416504 58.17520752 37.97676758 59.17463379 37.78369141 60.2043457 C36.35619034 65.29665557 33.29850281 68.95667397 30 73 C27.67178442 75.81861771 27.67178442 75.81861771 28.25 79 C28.85985983 82.15415418 28.85985983 82.15415418 31 85 C32.6837769 89.69685137 33.53592808 93.17279747 32 98 C28.58024758 101.41975242 24.31985737 102.13155275 19.75 103.125 C18.66138672 103.37830078 18.66138672 103.37830078 17.55078125 103.63671875 C-1.42722454 107.93298744 -23.88643667 107.8075704 -42 100 C-44.625 98.25 -44.625 98.25 -46 96 C-45.88344245 89.70589204 -43.42442589 85.13663884 -40 80 C-40.24389173 75.48800294 -42.36388374 72.56651024 -45 69 C-45.51167725 68.55277588 -46.02335449 68.10555176 -46.55053711 67.64477539 C-48.47647602 65.4593197 -48.75965728 63.65675992 -49.31640625 60.80859375 C-49.52330078 59.78056641 -49.73019531 58.75253906 -49.94335938 57.69335938 C-50.14767578 56.61892578 -50.35199219 55.54449219 -50.5625 54.4375 C-50.77068359 53.39013672 -50.97886719 52.34277344 -51.19335938 51.26367188 C-51.60657996 49.17943385 -52.01371154 47.09397879 -52.41455078 45.00732422 C-52.79401357 43.05810713 -53.18737807 41.11152458 -53.59716797 39.16845703 C-53.87197998 37.86497314 -53.87197998 37.86497314 -54.15234375 36.53515625 C-54.31597412 35.77726807 -54.47960449 35.01937988 -54.64819336 34.23852539 C-55.03232068 31.79434538 -55.05904199 29.4702407 -55 27 C-56.3921875 26.938125 -56.3921875 26.938125 -57.8125 26.875 C-61 26 -61 26 -63 23.375 C-64.27085638 19.08585971 -63.83504137 17.05238304 -62 13 C-58.96471022 10.22487791 -57.50121426 9.98271675 -53.375 10.125 C-48.57894737 11.36842105 -48.57894737 11.36842105 -47 14 C-45.54899407 20.0272554 -45.54899407 20.0272554 -47.13793945 23.4543457 C-48.28928481 25.95408815 -48.28928481 25.95408815 -47.14135742 28.18823242 C-46.38109253 29.2610144 -46.38109253 29.2610144 -45.60546875 30.35546875 C-45.06212891 31.14244141 -44.51878906 31.92941406 -43.95898438 32.74023438 C-43.37439453 33.54783203 -42.78980469 34.35542969 -42.1875 35.1875 C-41.05562634 36.80573557 -39.924099 38.42421345 -38.79296875 40.04296875 C-38.2827417 40.75477295 -37.77251465 41.46657715 -37.24682617 42.19995117 C-36 44 -36 44 -35 46 C-34.14268873 39.83312228 -33.71315753 33.71811088 -33.4375 27.5 C-33.39431641 26.5821875 -33.35113281 25.664375 -33.30664062 24.71875 C-33.20166544 22.47927939 -33.09950752 20.23971908 -33 18 C-33.62390625 17.86980469 -34.2478125 17.73960938 -34.890625 17.60546875 C-37 17 -37 17 -38.75 15.3125 C-40.40602592 12.24885205 -40.4918074 10.44265183 -40 7 C-38.04734702 3.6204083 -36.82728805 2.28775237 -33.125 1 C-29.30811493 1 -27.20941522 1.98478579 -24 4 C-22.43483882 7.13032236 -22.459663 10.59073084 -23 14 C-23.54084229 14.57733887 -24.08168457 15.15467773 -24.63891602 15.74951172 C-26.33734275 17.98385957 -26.33734275 17.98385957 -25.42260742 20.84082031 C-24.98795166 21.90913086 -24.5532959 22.97744141 -24.10546875 24.078125 C-23.64462891 25.23828125 -23.18378906 26.3984375 -22.70898438 27.59375 C-21.95584961 29.40359375 -21.95584961 29.40359375 -21.1875 31.25 C-20.69701172 32.47203125 -20.20652344 33.6940625 -19.70117188 34.953125 C-18.48481695 37.9762984 -17.25063654 40.99088311 -16 44 C-15.04246483 40.09222134 -14.11571831 36.17852538 -13.21679688 32.25683594 C-12.90680554 30.9241326 -12.58849851 29.59333493 -12.26171875 28.26464844 C-11.79322538 26.3535383 -11.35710288 24.43458427 -10.921875 22.515625 C-10.64956055 21.36352539 -10.37724609 20.21142578 -10.09667969 19.02441406 C-9.65593371 15.90100584 -9.65593371 15.90100584 -11.88378906 13.80761719 C-12.58213867 13.21110352 -13.28048828 12.61458984 -14 12 C-15.05590483 8.12834896 -15.37482524 5.9370631 -13.875 2.1875 C-9.63470208 -2.75951424 -5.80150949 -2.4710133 0 0 Z " fill="#000000" transform="translate(73,16)"/>
<path d="M0 0 C0.495 0.495 0.495 0.495 1 1 C0.62017269 4.29183671 0.16116098 7.43593657 -0.75 10.625 C-1.09641011 13.91589605 0.23181858 15.24949556 2 18 C3.70885441 22.69934963 4.53898927 26.16317658 3 31 C-0.41975242 34.41975242 -4.68014263 35.13155275 -9.25 36.125 C-10.33861328 36.37830078 -10.33861328 36.37830078 -11.44921875 36.63671875 C-30.42722454 40.93298744 -52.88643667 40.8075704 -71 33 C-73.625 31.25 -73.625 31.25 -75 29 C-74.88344245 22.70589204 -72.42442589 18.13663884 -69 13 C-69.28566879 10.64934822 -69.28566879 10.64934822 -70 8 C-70.34403308 5.66822025 -70.67949202 3.33512959 -71 1 C-51.04570319 -10.64000647 -20.71176257 -7.74177533 0 0 Z " fill="#090909" transform="translate(102,83)"/>
<path d="M0 0 C0.495 0.495 0.495 0.495 1 1 C0.79150913 4.6833387 0.59166328 7.21285374 -1.6552124 10.2020874 C-4.71914684 12.55142017 -6.49230562 12.48431255 -10.32910156 12.45410156 C-11.61012756 12.45379944 -12.89115356 12.45349731 -14.21099854 12.45318604 C-15.60421371 12.43276095 -16.9974225 12.41189699 -18.390625 12.390625 C-19.81979582 12.38316131 -21.2489769 12.37746898 -22.67816162 12.37347412 C-26.43327262 12.3582275 -30.18776125 12.31895516 -33.94262695 12.2746582 C-37.77676983 12.23368387 -41.61101362 12.21545856 -45.4453125 12.1953125 C-52.9638249 12.15245903 -60.48182512 12.08422067 -68 12 C-70.0670948 8.08282824 -71.3950743 5.47750869 -71 1 C-51.04570319 -10.64000647 -20.71176257 -7.74177533 0 0 Z " fill="#050505" transform="translate(102,83)"/>
<path d="M0 0 C1.6875 2.375 1.6875 2.375 3 5 C2.67 5.66 2.34 6.32 2 7 C1.15888672 6.70996094 1.15888672 6.70996094 0.30078125 6.4140625 C-2.5285931 5.90487119 -4.10685258 6.44613207 -6.8125 7.375 C-23.16766259 12.93939554 -44.72416275 12.07017824 -61.03125 6.875 C-63.87054888 6.03815401 -66.06365795 5.824696 -69 6 C-67.88648987 3.54121399 -67.88648987 3.54121399 -66 1 C-63.2230072 0.36076355 -63.2230072 0.36076355 -59.81616211 0.34057617 C-58.54151596 0.32093307 -57.26686981 0.30128998 -55.95359802 0.28105164 C-54.56151186 0.28449585 -53.16942694 0.28848118 -51.77734375 0.29296875 C-50.35150542 0.27985204 -48.92568567 0.26454789 -47.49989319 0.24714661 C-43.74736778 0.20724067 -39.99532732 0.19710356 -36.24261475 0.19311523 C-32.4213577 0.18380669 -28.60038908 0.14638224 -24.77929688 0.11132812 C-16.51962344 0.04027651 -8.26001567 0 0 0 Z " fill="#020202" transform="translate(100,94)"/>
<path d="M0 0 C2.77423556 0.39703734 5.30468088 1.09982308 7.96875 1.97265625 C26.17268897 7.59090733 50.85597619 8.16899414 68.76171875 0.875 C71.33016607 -0.12907016 72.45621587 0.05785773 75 1 C75 1.99 75 2.98 75 4 C55.827246 10.86237917 35.1127718 14.35164396 15 9 C13.67190344 8.65874347 12.34377583 8.31760778 11.015625 7.9765625 C7.33386453 7.01866447 3.66529948 6.01896315 0 5 C-0.5625 3.0625 -0.5625 3.0625 -1 1 C-0.67 0.67 -0.34 0.34 0 0 Z " fill="#E9E9E9" transform="translate(30,108)"/>
<path d="M0 0 C0.8515625 2.1328125 0.8515625 2.1328125 1 4 C-4.21144251 3.55073771 -8.99909529 2.75138225 -14.0625 1.4375 C-29.79362106 -2.05450076 -46.93847498 -0.85640092 -62.4375 3.125 C-65.48765611 3.87416115 -67.88962569 4.19439839 -71 4 C-70.83203125 2.1328125 -70.83203125 2.1328125 -70 0 C-51.49089509 -9.61593566 -18.5367369 -9.17838429 0 0 Z " fill="#EBEBEB" transform="translate(102,83)"/>
<path d="M0 0 C1.96875 0.26953125 1.96875 0.26953125 4.5 0.8125 C5.3146875 0.98394531 6.129375 1.15539062 6.96875 1.33203125 C8.60420715 1.69242194 10.23814398 2.06555314 11.8527832 2.51000977 C18.93603341 4.34348595 25.90395651 4.33135951 33.1875 4.3125 C35.02538086 4.33666992 35.02538086 4.33666992 36.90039062 4.36132812 C44.51771182 4.36534358 51.46517247 3.52705842 58.87231445 1.74291992 C61.90341322 1.02294228 64.92250401 0.47824583 68 0 C68.495 1.98 68.495 1.98 69 4 C47.54052658 14.10690239 22.06406703 11.00556624 0 5 C-0.5625 3.0625 -0.5625 3.0625 -1 1 C-0.67 0.67 -0.34 0.34 0 0 Z " fill="#E9E9E9" transform="translate(33,99)"/>
<path d="M0 0 C1.09920273 0.00222061 2.19840546 0.00444122 3.33091736 0.00672913 C4.57212845 0.00680466 5.81333954 0.00688019 7.09216309 0.00695801 C8.45682311 0.01206541 9.82148274 0.01728142 11.18614197 0.02259827 C12.57476755 0.02446251 13.96339379 0.02588638 15.35202026 0.02688599 C19.01319686 0.03071065 22.67433402 0.04054048 26.335495 0.05158997 C30.06890835 0.06180519 33.80232805 0.06638384 37.53575134 0.07142639 C44.86584748 0.08216281 52.19591108 0.0992386 59.52598572 0.12025452 C60.08848572 2.05775452 60.08848572 2.05775452 60.52598572 4.12025452 C59.52598572 5.12025452 59.52598572 5.12025452 57.05197144 5.24050903 C55.95276871 5.23828842 54.85356598 5.23606781 53.72105408 5.23377991 C51.85923744 5.23366661 51.85923744 5.23366661 49.95980835 5.23355103 C48.59514832 5.22844362 47.2304887 5.22322762 45.86582947 5.21791077 C44.47720389 5.21604652 43.08857765 5.21462265 41.69995117 5.21362305 C38.03877457 5.20979838 34.37763742 5.19996855 30.71647644 5.18891907 C26.98306309 5.17870384 23.24964338 5.17412519 19.51622009 5.16908264 C12.18612395 5.15834622 4.85606035 5.14127043 -2.47401428 5.12025452 C-3.03651428 3.18275452 -3.03651428 3.18275452 -3.47401428 1.12025452 C-2.47401428 0.12025452 -2.47401428 0.12025452 0 0 Z " fill="#DEDEDE" transform="translate(38.47401428222656,89.87974548339844)"/>
</svg>
