<?xml version="1.0" encoding="UTF-8"?>
<svg version="1.1" xmlns="http://www.w3.org/2000/svg" width="133" height="134">
<path d="M0 0 C2.0625 0.4375 2.0625 0.4375 4 1 C4 2.65 4 4.3 4 6 C6.31 6 8.62 6 11 6 C11.5625 7.9375 11.5625 7.9375 12 10 C11 11 11 11 7.4375 11.0625 C6.303125 11.041875 5.16875 11.02125 4 11 C4.02649222 14.3634269 4.02649222 14.3634269 5 18 C6.95309888 19.40113616 8.95708818 20.73339467 11 22 C13.21228828 25.58543272 14.38835701 28.84082764 15 33 C16.010625 32.505 17.02125 32.01 18.0625 31.5 C25.44082938 28.75121062 35.28411432 28.30896344 42.5625 31.5625 C47.68562411 34.73236328 51.09077772 38.86530421 53.4375 44.375 C54.64495351 52.15636704 53.47676607 57.45331508 48.8125 63.85546875 C44.53845261 68.91247741 40.27611945 72.74842855 34 75 C34.04189453 75.60996826 34.08378906 76.21993652 34.12695312 76.84838867 C34.29382668 79.62741428 34.39743371 82.40538941 34.5 85.1875 C34.56703125 86.14720703 34.6340625 87.10691406 34.703125 88.09570312 C34.89480103 95.01999981 34.89480103 95.01999981 32.43847656 97.71020508 C19.30274693 106.31522119 0.48407304 106.97338934 -14.546875 104.26953125 C-29.38543503 101.07063878 -29.38543503 101.07063878 -34 96 C-34.87767678 92.3909718 -34.5938613 88.93579542 -34.375 85.25 C-34.16769558 77.63763691 -34.16769558 77.63763691 -37.0859375 70.8359375 C-39.63629572 68.71936455 -42.26073809 66.8615108 -45 65 C-49.04943292 60.72758069 -50.32019536 56.85202428 -50.5625 51 C-50.25308828 44.53492346 -48.79924098 39.90739347 -44.28125 35.21484375 C-38.33774225 29.8883527 -33.48351277 29.67048752 -25.6015625 29.703125 C-20.7622505 30.10202707 -17.15455155 31.58298286 -13 34 C-12.01 34.495 -12.01 34.495 -11 35 C-10.99742188 34.43152344 -10.99484375 33.86304688 -10.9921875 33.27734375 C-10.70442822 27.53175015 -9.41399417 24.49593484 -5.47265625 20.3125 C-4 19 -4 19 -2 18 C-1.59270772 15.67843403 -1.25561323 13.3431213 -1 11 C-3.31 11 -5.62 11 -8 11 C-8 9.35 -8 7.7 -8 6 C-5.69 6 -3.38 6 -1 6 C-1.020625 5.195625 -1.04125 4.39125 -1.0625 3.5625 C-1 1 -1 1 0 0 Z " fill="#080808" transform="translate(65,15)"/>
<path d="M0 0 C4.2085577 2.51443489 6.59454452 6.04523651 8.5 10.5 C9.5419766 14.85735671 8.16665393 17.55925932 6.125 21.375 C2.66716046 26.77480156 -1.72855615 31.57028841 -7.5 34.5 C-10.28125 34.33203125 -10.28125 34.33203125 -13.5 33.5 C-14.86419217 33.18579683 -16.22880459 32.87341471 -17.59375 32.5625 C-19.8043544 32.03258767 -22.01347135 31.49673278 -24.22265625 30.9609375 C-28.30003009 29.98353483 -32.35057648 29.13029218 -36.5 28.5 C-37.19244233 20.92160343 -37.0117596 15.6179207 -32.27734375 9.46875 C-23.71320706 -0.01767833 -12.76024383 -5.45827921 0 0 Z " fill="#FBFBFB" transform="translate(105.5,51.5)"/>
<path d="M0 0 C10.02666729 3.20901791 16.27452862 9.41179293 22 18 C22.1953125 20.91796875 22.1953125 20.91796875 22.125 24.1875 C22.10695312 25.27417969 22.08890625 26.36085938 22.0703125 27.48046875 C22.04710937 28.31191406 22.02390625 29.14335938 22 30 C20.44152344 30.16435547 20.44152344 30.16435547 18.8515625 30.33203125 C11.70522757 31.1297856 4.9230742 31.97076201 -1.88671875 34.4140625 C-4.48633193 35.1348425 -6.3108967 35.36239064 -9 35 C-11.5703125 33.2421875 -11.5703125 33.2421875 -14.125 30.875 C-14.97320313 30.10929687 -15.82140625 29.34359375 -16.6953125 28.5546875 C-21.26285997 23.49167726 -22.5714809 19.05596721 -22.3515625 12.3984375 C-21.66172348 7.69220241 -19.09079801 5.02309331 -15.734375 1.875 C-10.82968535 -1.48821576 -5.70817737 -0.82550996 0 0 Z " fill="#FCFCFC" transform="translate(42,50)"/>
<path d="M0 0 C0.7415332 0.00080566 1.48306641 0.00161133 2.24707031 0.00244141 C10.71836473 0.09527252 19.10090304 0.78401446 26.9375 4.1875 C22.93294113 9.08196084 16.87267077 9.48078945 10.9375 10.1875 C-14.94583507 11.71971829 -14.94583507 11.71971829 -21.875 5.58203125 C-22.266875 5.12183594 -22.65875 4.66164063 -23.0625 4.1875 C-21.68958132 3.70240207 -20.31403297 3.22474487 -18.9375 2.75 C-18.17179687 2.48316406 -17.40609375 2.21632813 -16.6171875 1.94140625 C-11.10996704 0.31618676 -5.71394109 -0.00649016 0 0 Z " fill="#F3F3F3" transform="translate(63.0625,104.8125)"/>
<path d="M0 0 C1.11246094 -0.020625 2.22492188 -0.04125 3.37109375 -0.0625 C12.4272503 -0.10467069 21.29458084 0.87617335 29.375 5.25 C29.375 6.9 29.375 8.55 29.375 10.25 C28.79492188 10.11722656 28.21484375 9.98445313 27.6171875 9.84765625 C26.83601563 9.67105469 26.05484375 9.49445313 25.25 9.3125 C24.10144531 9.05146484 24.10144531 9.05146484 22.9296875 8.78515625 C15.47905904 7.22439769 8.34420347 7.03180818 0.75 7 C-0.45785156 6.979375 -1.66570313 6.95875 -2.91015625 6.9375 C-10.05815828 6.90672281 -16.3400411 7.60300975 -23.21240234 9.60253906 C-25.625 10.25 -25.625 10.25 -28.625 10.25 C-28.625 8.6 -28.625 6.95 -28.625 5.25 C-27.08663292 4.59634601 -25.54411234 3.95246397 -24 3.3125 C-23.14148437 2.95285156 -22.28296875 2.59320313 -21.3984375 2.22265625 C-14.43942865 -0.21789756 -7.2826623 0.03306544 0 0 Z " fill="#EFEFEF" transform="translate(64.625,84.75)"/>
<path d="M0 0 C0 1.98 0 3.96 0 6 C-0.70125 5.79503906 -1.4025 5.59007813 -2.125 5.37890625 C-3.07375 5.10949219 -4.0225 4.84007813 -5 4.5625 C-5.928125 4.29566406 -6.85625 4.02882813 -7.8125 3.75390625 C-22.62849036 0.24963402 -39.4693382 0.54854329 -54 5 C-55.33147953 5.34066282 -56.66412421 5.67700656 -58 6 C-58.3125 3.6875 -58.3125 3.6875 -58 1 C-43.92765016 -10.51374078 -15.46500525 -5.72777972 0 0 Z " fill="#F2F2F2" transform="translate(94,100)"/>
<path d="M0 0 C3.03327811 0.90998343 4.66168179 2.37950498 6.55078125 4.90625 C8.23947173 8.18634015 8.16003365 11.17720914 7.5 14.75 C5.7467407 19.13314824 3.17127742 22.88125339 0.5 26.75 C-4.5945571 22.20620583 -7.51310105 17.58304188 -8 10.6875 C-7.32420713 5.36563115 -5.52432445 1.65729734 0 0 Z " fill="#F8F8F8" transform="translate(66.5,37.25)"/>
</svg>
