<?xml version="1.0" encoding="UTF-8"?>
<svg version="1.1" xmlns="http://www.w3.org/2000/svg" width="134" height="134">
<path d="M0 0 C1.48831242 0.00667405 2.97660807 0.01863442 4.46484375 0.03515625 C5.22345703 0.03966797 5.98207031 0.04417969 6.76367188 0.04882812 C8.64326246 0.06064945 10.52281274 0.07858547 12.40234375 0.09765625 C12.40234375 2.07765625 12.40234375 4.05765625 12.40234375 6.09765625 C15.70234375 6.09765625 19.00234375 6.09765625 22.40234375 6.09765625 C22.40234375 4.44765625 22.40234375 2.79765625 22.40234375 1.09765625 C23.92443965 -0.42443965 25.28444457 -0.03193896 27.40234375 -0.03515625 C28.20671875 -0.03644531 29.01109375 -0.03773437 29.83984375 -0.0390625 C30.68546875 -0.03519531 31.53109375 -0.03132813 32.40234375 -0.02734375 C33.67078125 -0.03314453 33.67078125 -0.03314453 34.96484375 -0.0390625 C35.76921875 -0.03777344 36.57359375 -0.03648438 37.40234375 -0.03515625 C38.14484375 -0.03402832 38.88734375 -0.03290039 39.65234375 -0.03173828 C41.40234375 0.09765625 41.40234375 0.09765625 42.40234375 1.09765625 C42.40234375 2.74765625 42.40234375 4.39765625 42.40234375 6.09765625 C45.70234375 6.09765625 49.00234375 6.09765625 52.40234375 6.09765625 C52.40234375 4.11765625 52.40234375 2.13765625 52.40234375 0.09765625 C55.04824389 0.07080946 57.69387471 0.05089268 60.33984375 0.03515625 C61.09458984 0.02677734 61.84933594 0.01839844 62.62695312 0.00976562 C64.55228688 0.00113184 66.47769956 0.04541292 68.40234375 0.09765625 C70.56943291 2.26474541 69.86371675 6.68984472 69.96484375 9.66015625 C70.02736328 10.44712891 70.08988281 11.23410156 70.15429688 12.04492188 C70.22425547 14.61643036 70.13935564 16.62546202 69.40234375 19.09765625 C67.60351562 20.83056641 67.60351562 20.83056641 65.40625 22.546875 C62.22527344 25.38096438 61.46182655 26.75862324 60.7121582 31.03149414 C60.4409825 35.80901508 60.60742816 40.56936693 60.77734375 45.34765625 C60.80035608 47.01167425 60.81991768 48.67574374 60.8359375 50.33984375 C60.86277169 51.93104514 60.89261388 53.52219927 60.92578125 55.11328125 C60.94055511 55.85499573 60.95532898 56.59671021 60.97055054 57.36090088 C61.10641828 61.03737867 61.23086659 64.04788023 63.40234375 67.09765625 C64.88734375 68.08765625 64.88734375 68.08765625 66.40234375 69.09765625 C66.6953125 71.69921875 66.6953125 71.69921875 66.58984375 74.72265625 C66.54923828 76.22699219 66.54923828 76.22699219 66.5078125 77.76171875 C66.47300781 78.53257813 66.43820313 79.3034375 66.40234375 80.09765625 C67.70171875 80.07703125 69.00109375 80.05640625 70.33984375 80.03515625 C71.69400008 80.01366171 73.04990458 80.02617426 74.40234375 80.09765625 C75.40234375 81.09765625 75.40234375 81.09765625 75.53515625 83.78515625 C75.53257813 84.87828125 75.53 85.97140625 75.52734375 87.09765625 C75.53121094 88.73734375 75.53121094 88.73734375 75.53515625 90.41015625 C75.40234375 93.09765625 75.40234375 93.09765625 74.40234375 94.09765625 C71.79084087 94.19807082 69.2057601 94.23382682 66.59375 94.22705078 C65.36699051 94.22967926 65.36699051 94.22967926 64.115448 94.23236084 C61.39855865 94.2367801 58.68173382 94.23384111 55.96484375 94.23046875 C54.08536771 94.23114177 52.20589176 94.23211178 50.32641602 94.23336792 C46.38199029 94.23484499 42.43758717 94.23269004 38.49316406 94.22802734 C33.42521872 94.22233005 28.35732633 94.22560901 23.28938293 94.23159981 C19.40677488 94.23520517 15.52417947 94.23406695 11.64157104 94.23147202 C9.77236932 94.23080268 7.90316647 94.23163141 6.03396606 94.23395157 C3.42625871 94.23647768 0.81863834 94.23263809 -1.7890625 94.22705078 C-2.56935822 94.22907501 -3.34965393 94.23109924 -4.15359497 94.23318481 C-9.48339372 94.21191878 -9.48339372 94.21191878 -10.59765625 93.09765625 C-10.69639441 91.09966053 -10.72737424 89.09808467 -10.72265625 87.09765625 C-10.72523437 86.00453125 -10.7278125 84.91140625 -10.73046875 83.78515625 C-10.59765625 81.09765625 -10.59765625 81.09765625 -9.59765625 80.09765625 C-6.92706774 79.95650464 -4.27333387 80.05518518 -1.59765625 80.09765625 C-1.66726562 78.97617188 -1.66726562 78.97617188 -1.73828125 77.83203125 C-2.03708924 69.67884182 -2.03708924 69.67884182 0.33984375 66.53515625 C1.02046875 66.06078125 1.70109375 65.58640625 2.40234375 65.09765625 C4.78351019 60.33532336 3.84062657 53.29195857 3.91723633 48.00537109 C3.94877994 46.32725089 3.99643516 44.64935035 4.06079102 42.97216797 C4.79647966 33.27338277 4.79647966 33.27338277 1.60131836 24.49682617 C0.17514649 23.2270946 -1.29021994 21.99959022 -2.79663086 20.82617188 C-5.04501355 18.66830968 -5.2335805 17.48751928 -5.4140625 14.4140625 C-5.37090658 12.82775543 -5.28582805 11.24206622 -5.16015625 9.66015625 C-5.13244141 8.84611328 -5.10472656 8.03207031 -5.07617188 7.19335938 C-4.77571316 0.12963391 -4.77571316 0.12963391 0 0 Z " fill="#080808" transform="translate(34.59765625,23.90234375)"/>
<path d="M0 0 C15.18 0 30.36 0 46 0 C46 11.55 46 23.1 46 35 C30.82 35 15.64 35 0 35 C0 23.45 0 11.9 0 0 Z " fill="#FBFBFB" transform="translate(44,50)"/>
<path d="M0 0 C19.14 0 38.28 0 58 0 C58 2.64 58 5.28 58 8 C38.86 8 19.72 8 0 8 C0 5.36 0 2.72 0 0 Z " fill="#E8E8E8" transform="translate(38,97)"/>
<path d="M0 0 C2.31 0 4.62 0 7 0 C7.66 1.65 8.32 3.3 9 5 C14.61 5 20.22 5 26 5 C26.33 3.35 26.66 1.7 27 0 C30.3 0 33.6 0 37 0 C37.495 2.475 37.495 2.475 38 5 C43.61 5 49.22 5 55 5 C55.66 3.35 56.32 1.7 57 0 C59.31 0 61.62 0 64 0 C64 3.3 64 6.6 64 10 C42.88 10 21.76 10 0 10 C0 6.7 0 3.4 0 0 Z " fill="#FCFCFC" transform="translate(35,29)"/>
<path d="M0 0 C25.08 0 50.16 0 76 0 C76 1.32 76 2.64 76 4 C50.92 4 25.84 4 0 4 C0 2.68 0 1.36 0 0 Z " fill="#FDFDFD" transform="translate(29,109)"/>
<path d="M0 0 C15.18 0 30.36 0 46 0 C46.99 1.98 47.98 3.96 49 6 C31.84 6 14.68 6 -3 6 C-2.01 4.02 -1.02 2.04 0 0 Z " fill="#DBDBDB" transform="translate(44,87)"/>
<path d="M0 0 C18.48 0 36.96 0 56 0 C53 4 53 4 50.76123047 4.50793457 C49.4524292 4.51270813 49.4524292 4.51270813 48.1171875 4.51757812 C47.12605957 4.53018677 46.13493164 4.54279541 45.11376953 4.55578613 C44.04497559 4.54768921 42.97618164 4.53959229 41.875 4.53125 C40.22733643 4.53699036 40.22733643 4.53699036 38.54638672 4.54284668 C36.22297245 4.54556982 33.89952774 4.53818069 31.57617188 4.52148438 C28.01362963 4.50008188 24.45310429 4.52127399 20.890625 4.546875 C18.6354122 4.5442318 16.38020066 4.53910698 14.125 4.53125 C12.52180908 4.54339539 12.52180908 4.54339539 10.88623047 4.55578613 C9.39953857 4.53687317 9.39953857 4.53687317 7.8828125 4.51757812 C7.01027832 4.51439575 6.13774414 4.51121338 5.23876953 4.50793457 C3 4 3 4 0 0 Z " fill="#FDFDFD" transform="translate(39,44)"/>
</svg>
