<?xml version="1.0" encoding="UTF-8"?>
<svg version="1.1" xmlns="http://www.w3.org/2000/svg" width="133" height="134">
<path d="M0 0 C4.01165146 2.11229206 6.11122867 4.2341827 8.02734375 8.28125 C8.109375 11.1484375 8.109375 11.1484375 7.83984375 14.15625 C7.70400832 18.58991857 7.85238213 20.86376131 10.90234375 24.15625 C11.44890625 24.69121094 11.99546875 25.22617187 12.55859375 25.77734375 C15.7548684 29.05012498 15.98618647 32.7708997 16.33984375 37.15625 C16.19799319 42.84118384 14.14623583 47.60291187 11.02734375 52.28125 C11.58421875 52.508125 12.14109375 52.735 12.71484375 52.96875 C20.42478486 57.34466252 25.33291835 65.81151968 28.33984375 73.90625 C30.02734375 80.28125 30.02734375 80.28125 31.02734375 95.28125 C6.60734375 95.28125 -17.81265625 95.28125 -42.97265625 95.28125 C-42.97265625 81.34380395 -41.00515756 69.24393312 -31.97265625 58.28125 C-29.73282345 56.04577486 -27.5063638 54.19445774 -24.97265625 52.28125 C-25.18921875 51.75917969 -25.40578125 51.23710938 -25.62890625 50.69921875 C-28.29945539 43.63957265 -29.60180321 36.68598067 -26.91796875 29.4296875 C-25.23307857 25.97017926 -23.70374715 23.0123409 -20.97265625 20.28125 C-20.84364062 18.30388351 -20.84364062 18.30388351 -21.03515625 16.09375 C-21.12395207 11.49116676 -20.2833693 8.34491778 -17.97265625 4.28125 C-12.88771699 -0.5494423 -6.77819643 -2.46967949 0 0 Z " fill="#FBFBFB" transform="translate(70.97265625,24.71875)"/>
<path d="M0 0 C4.01165146 2.11229206 6.11122867 4.2341827 8.02734375 8.28125 C8.109375 11.1484375 8.109375 11.1484375 7.83984375 14.15625 C7.70400832 18.58991857 7.85238213 20.86376131 10.90234375 24.15625 C11.44890625 24.69121094 11.99546875 25.22617187 12.55859375 25.77734375 C15.7548684 29.05012498 15.98618647 32.7708997 16.33984375 37.15625 C16.19799319 42.84118384 14.14623583 47.60291187 11.02734375 52.28125 C11.58421875 52.508125 12.14109375 52.735 12.71484375 52.96875 C20.42478486 57.34466252 25.33291835 65.81151968 28.33984375 73.90625 C30.02734375 80.28125 30.02734375 80.28125 31.02734375 95.28125 C6.60734375 95.28125 -17.81265625 95.28125 -42.97265625 95.28125 C-42.97265625 81.34380395 -41.00515756 69.24393312 -31.97265625 58.28125 C-29.73282345 56.04577486 -27.5063638 54.19445774 -24.97265625 52.28125 C-25.18921875 51.75917969 -25.40578125 51.23710938 -25.62890625 50.69921875 C-28.29945539 43.63957265 -29.60180321 36.68598067 -26.91796875 29.4296875 C-25.23307857 25.97017926 -23.70374715 23.0123409 -20.97265625 20.28125 C-20.84364062 18.30388351 -20.84364062 18.30388351 -21.03515625 16.09375 C-21.12395207 11.49116676 -20.2833693 8.34491778 -17.97265625 4.28125 C-12.88771699 -0.5494423 -6.77819643 -2.46967949 0 0 Z M-14.97265625 9.28125 C-16.33325711 14.27011981 -15.94119994 17.5335858 -13.97265625 22.28125 C-14.45476563 22.66796875 -14.936875 23.0546875 -15.43359375 23.453125 C-16.06523438 23.97390625 -16.696875 24.4946875 -17.34765625 25.03125 C-17.97414063 25.54171875 -18.600625 26.0521875 -19.24609375 26.578125 C-22.26413445 29.55519682 -23.27211568 32.33119451 -23.34765625 36.53125 C-23.23520047 41.39897859 -21.85502872 45.34912459 -18.97265625 49.28125 C-16.91783893 50.98462405 -16.91783893 50.98462405 -14.97265625 52.28125 C-15.69710937 52.69375 -16.4215625 53.10625 -17.16796875 53.53125 C-28.17721243 60.10743822 -34.51680085 68.68361278 -37.67578125 81.12890625 C-38.0928513 84.1526641 -37.97265625 87.22886421 -37.97265625 90.28125 C-16.85265625 90.28125 4.26734375 90.28125 26.02734375 90.28125 C24.44591972 76.04843372 21.19424198 65.99653318 9.9296875 56.65625 C7.74144328 55.07460326 5.63005741 54.01326322 3.02734375 53.28125 C3.43726563 52.82234375 3.8471875 52.3634375 4.26953125 51.890625 C4.80835938 51.27703125 5.3471875 50.6634375 5.90234375 50.03125 C6.70285156 49.12632813 6.70285156 49.12632813 7.51953125 48.203125 C10.77608916 44.05227917 11.47194265 40.78982538 11.34375 35.59375 C10.64954735 30.52007134 8.08913667 27.22238463 4.27734375 23.84375 C3.53484375 23.328125 2.79234375 22.8125 2.02734375 22.28125 C2.18332031 21.71277344 2.33929688 21.14429687 2.5 20.55859375 C3.38338655 16.74367256 3.74394196 13.15363648 3.02734375 9.28125 C-0.00888021 5.6525921 -1.87989375 4.47296272 -6.53515625 3.65625 C-10.95218324 4.45934582 -12.35441887 5.66192185 -14.97265625 9.28125 Z " fill="#040404" transform="translate(70.97265625,24.71875)"/>
</svg>
