<?xml version="1.0" encoding="UTF-8"?>
<svg version="1.1" xmlns="http://www.w3.org/2000/svg" width="134" height="134">
<path d="M0 0 C3.06458538 2.04305692 3.82153128 3.44079802 4.9375 6.9375 C5.01245915 10.61049821 4.178742 12.09501066 2 15 C1.34 15.66 0.68 16.32 0 17 C0.19363036 19.56043994 0.19363036 19.56043994 0.8984375 22.48828125 C1.24648437 24.13666992 1.24648437 24.13666992 1.6015625 25.81835938 C1.98441406 27.54795898 1.98441406 27.54795898 2.375 29.3125 C2.86632676 31.57848877 3.35346405 33.84539094 3.8359375 36.11328125 C4.05813965 37.12173096 4.2803418 38.13018066 4.50927734 39.16918945 C4.97364112 41.84794467 5.09251865 44.28870667 5 47 C5.66 47 6.32 47 7 47 C7.14695312 46.44054688 7.29390625 45.88109375 7.4453125 45.3046875 C9.32179802 38.59679097 11.95721175 32.40141666 14.890625 26.1015625 C15.990656 23.02612371 16.35475109 21.90873028 15 19 C14.01 18.01 14.01 18.01 13 17 C12.43924711 13.94242108 12.47260201 11.06108317 13 8 C15.54471222 4.93137644 17.08941981 4.15176337 21 3.5 C24.83460553 4.13910092 26.40320527 5.10642873 29 8 C30.1659741 12.00803597 30.43240501 14.05282711 28.6875 17.875 C27 20 27 20 25 21 C25 29.91 25 38.82 25 48 C27.000625 45.07125 29.00125 42.1425 31.0625 39.125 C31.69808838 38.22410645 32.33367676 37.32321289 32.98852539 36.39501953 C35.91994453 31.92676329 37.41749471 28.99956597 36.74609375 23.59375 C36.57650146 22.79904297 36.40690918 22.00433594 36.23217773 21.18554688 C35.94668492 18.49813191 36.41196979 17.52881505 38 15.375 C41 13 41 13 44.5 12.375 C48.53765567 13.09600994 50.23518062 13.99122597 53 17 C54.16480195 20.02848506 54.14092583 21.50675958 53.25 24.625 C52.00381626 26.99274911 51.18556641 28.46200882 49 30 C47.33400912 30.04745701 45.66586666 30.05163371 44 30 C43.94956543 30.65121826 43.89913086 31.30243652 43.84716797 31.97338867 C43.24882105 39.14656465 42.29436158 46.21152947 41.125 53.3125 C40.96386719 54.35728516 40.80273438 55.40207031 40.63671875 56.47851562 C39.24781088 64.94654696 36.6892087 70.47613558 31.109375 76.97265625 C29.77569106 78.96906216 29.77569106 78.96906216 30.1953125 81.40625 C31.04588408 84.14789821 32.04597485 86.77766528 33.125 89.4375 C34.70232609 93.67799261 35.58686834 96.57943819 34 101 C26.74666418 108.25333582 5.87571415 105.24286378 -4 105.25 C-13.46585109 105.22691382 -22.94005662 105.13672815 -32.375 104.3125 C-33.11621094 104.25932617 -33.85742188 104.20615234 -34.62109375 104.15136719 C-38.1426782 103.75951458 -39.8401801 103.14645956 -42.4765625 100.73046875 C-44.15579291 97.72077117 -44.55016176 96.37574981 -44 93 C-42.94140625 90.71875 -42.94140625 90.71875 -41.5625 88.5 C-39.60918667 85.3390827 -38.25532025 82.75261386 -38 79 C-39.05758233 76.86272584 -39.05758233 76.86272584 -40.75 75 C-45.08350178 69.78296873 -47.32511911 65.70401902 -48.38671875 58.90625 C-48.49345413 58.23710571 -48.60018951 57.56796143 -48.7101593 56.87854004 C-48.93265737 55.47075724 -49.15003672 54.06215684 -49.36254883 52.65283203 C-49.68675918 50.504908 -50.02653056 48.35990204 -50.36914062 46.21484375 C-52.14618815 34.86754543 -52.14618815 34.86754543 -52 30 C-53.11375 30.12375 -53.11375 30.12375 -54.25 30.25 C-57 30 -57 30 -59.25 28.3125 C-61.22519841 25.70241639 -61.84101533 24.2591858 -62 21 C-61.23355683 18.07358062 -60.37191157 16.39946058 -58.3125 14.1875 C-54.92172814 12.44629283 -52.75642826 12.40687975 -49 13 C-45.16268674 16.037873 -45.16268674 16.037873 -44 19 C-44.23217773 21.18554688 -44.23217773 21.18554688 -44.74609375 23.59375 C-45.55905348 30.13933297 -42.72274501 33.93690775 -39.0625 39.125 C-37.061875 42.05375 -35.06125 44.9825 -33 48 C-32.67 38.43 -32.34 28.86 -32 19 C-33.32 18.34 -34.64 17.68 -36 17 C-38.41801993 13.37297011 -38.20120778 11.99389921 -37.52734375 7.875 C-37 6 -37 6 -35.4375 4 C-31.89403842 2.54627217 -28.76984163 2.32791758 -25 3 C-22.5 4.5 -22.5 4.5 -21 7 C-20.50871623 9.75570666 -20.40594245 12.25984267 -21 15 C-21.52335937 15.65355469 -22.04671875 16.30710937 -22.5859375 16.98046875 C-24.22702399 18.87098999 -24.22702399 18.87098999 -23.84765625 21.05078125 C-23.58855469 21.79714844 -23.32945313 22.54351562 -23.0625 23.3125 C-22.76859375 24.17617188 -22.4746875 25.03984375 -22.171875 25.9296875 C-20.5101496 30.28340804 -18.79026902 34.61404005 -16.98266602 38.90942383 C-15.78995759 41.78176006 -15 43.85518527 -15 47 C-14.34 47 -13.68 47 -13 47 C-12.95464111 46.39849121 -12.90928223 45.79698242 -12.86254883 45.17724609 C-12.47066287 40.63172009 -11.90844736 36.23877073 -10.88671875 31.7890625 C-10.69142578 30.93699219 -10.49613281 30.08492187 -10.29492188 29.20703125 C-9.88371334 27.45906441 -9.45881202 25.7142719 -9.02148438 23.97265625 C-8.49109902 21.60130877 -8.03886279 19.43023945 -8 17 C-9.70787107 14.556655 -9.70787107 14.556655 -12 13 C-13.08942951 9.00542512 -13.42137647 6.92301513 -11.6875 3.125 C-8.58429189 -0.78274355 -4.70229695 -0.66111502 0 0 Z " fill="#050505" transform="translate(71,14)"/>
<path d="M0 0 C1.30807617 0.00531738 2.61615234 0.01063477 3.96386719 0.01611328 C30.2735401 0.2735401 30.2735401 0.2735401 34.25 4.25 C35.11515855 7.20862864 35.64575338 10.22876688 36.25 13.25 C25.48040209 14.87148795 14.94789444 15.56919485 4.05883789 15.51074219 C1.68545097 15.49999072 -0.68718213 15.51073134 -3.06054688 15.5234375 C-12.79156854 15.53099 -22.13935182 14.81479353 -31.75 13.25 C-31.75 8.53835716 -31.11338044 5.61338044 -27.75 2.25 C-18.6571924 -0.00118328 -9.31088792 -0.06819849 0 0 Z " fill="#F7F7F7" transform="translate(64.75,98.75)"/>
<path d="M0 0 C-1.29936257 2.89857803 -2.46411154 5.05245546 -5 7 C-7.75680542 7.39440918 -7.75680542 7.39440918 -11.13623047 7.41992188 C-13.03367508 7.44378967 -13.03367508 7.44378967 -14.9694519 7.46813965 C-16.35202987 7.46940701 -17.7346092 7.4695837 -19.1171875 7.46875 C-20.53582053 7.47585145 -21.95445069 7.48355043 -23.37307739 7.49182129 C-26.34726949 7.50527158 -29.32119615 7.50683304 -32.29541016 7.50097656 C-36.1011446 7.49508596 -39.90560085 7.52564029 -43.71108818 7.56609344 C-46.64172184 7.59198709 -49.57204864 7.59484634 -52.50278091 7.59120178 C-53.90538871 7.59289216 -55.30801081 7.60252706 -56.71050644 7.62034607 C-58.67520631 7.64255706 -60.64020769 7.62961611 -62.60498047 7.61523438 C-64.28018265 7.61831604 -64.28018265 7.61831604 -65.98922729 7.62145996 C-69.95282203 6.80332599 -71.48592531 5.09610035 -74 2 C-74 1.34 -74 0.68 -74 0 C-51.95210369 -5.23256525 -21.75993874 -6.71636754 0 0 Z " fill="#F4F4F4" transform="translate(104,79)"/>
<path d="M0 0 C0.92838181 -0.00095673 1.85676361 -0.00191345 2.8132782 -0.00289917 C4.77420113 -0.0035784 6.73512634 -0.00174206 8.69604492 0.00244141 C11.67827487 0.00777504 14.66035296 0.00249707 17.64257812 -0.00390625 C19.55338575 -0.00324507 21.46419327 -0.00196308 23.375 0 C24.25859695 -0.00202423 25.14219391 -0.00404846 26.05256653 -0.00613403 C31.25268154 0.01328385 36.23969113 0.38278619 41.38671875 1.1328125 C41.38671875 3.1128125 41.38671875 5.0928125 41.38671875 7.1328125 C22.90671875 7.1328125 4.42671875 7.1328125 -14.61328125 7.1328125 C-14.61328125 5.1528125 -14.61328125 3.1728125 -14.61328125 1.1328125 C-9.75660455 -0.12459165 -4.97883574 -0.01132815 0 0 Z " fill="#F6F6F6" transform="translate(53.61328125,88.8671875)"/>
<path d="M0 0 C0.66 0 1.32 0 2 0 C2.83940617 4.24882398 3.67047347 8.49923705 4.5 12.75 C4.73847656 13.9565625 4.97695312 15.163125 5.22265625 16.40625 C5.44824219 17.56640625 5.67382812 18.7265625 5.90625 19.921875 C6.11572266 20.99018555 6.32519531 22.05849609 6.54101562 23.15917969 C7 26 7 26 7 30 C3.04 30 -0.92 30 -5 30 C-4.33951685 23.22135711 -3.25308378 16.61769044 -1.9375 9.9375 C-1.75123047 8.97650391 -1.56496094 8.01550781 -1.37304688 7.02539062 C-0.91854438 4.68295469 -0.46081098 2.34120156 0 0 Z " fill="#F4F4F4" transform="translate(66,41)"/>
<path d="M0 0 C2.29520965 2.29520965 2.98155206 4.1081611 4.1640625 7.12109375 C4.56367187 8.13880859 4.96328125 9.15652344 5.375 10.20507812 C5.99375 11.80512695 5.99375 11.80512695 6.625 13.4375 C7.04523437 14.50033203 7.46546875 15.56316406 7.8984375 16.65820312 C11 24.61854454 11 24.61854454 11 28 C7.37 28 3.74 28 0 28 C0 18.76 0 9.52 0 0 Z " fill="#F4F4F4" transform="translate(44,44)"/>
<path d="M0 0 C0.33 0 0.66 0 1 0 C1 8.91 1 17.82 1 27 C-2.63 27 -6.26 27 -10 27 C-9.228603 23.14301498 -8.41217319 20.26030444 -6.93359375 16.69921875 C-6.3293457 15.23452148 -6.3293457 15.23452148 -5.71289062 13.74023438 C-5.29201172 12.73283203 -4.87113281 11.72542969 -4.4375 10.6875 C-4.01275391 9.66076172 -3.58800781 8.63402344 -3.15039062 7.57617188 C-2.10429072 5.04907659 -1.05404084 2.52379106 0 0 Z " fill="#F2F2F2" transform="translate(89,45)"/>
<path d="M0 0 C1.25657078 2.51314157 0.89935929 3.60384425 0.44140625 6.3515625 C0.30283203 7.20234375 0.16425781 8.053125 0.02148438 8.9296875 C-0.12998047 9.81914063 -0.28144531 10.70859375 -0.4375 11.625 C-0.58509766 12.5221875 -0.73269531 13.419375 -0.88476562 14.34375 C-1.25078039 16.56345245 -1.62465446 18.7818563 -2 21 C-5.3 20.67 -8.6 20.34 -12 20 C-10.37885498 15.20178341 -7.70723241 11.3327141 -4.875 7.1875 C-4.40707031 6.49462891 -3.93914062 5.80175781 -3.45703125 5.08789062 C-2.30887563 3.38908895 -1.15500633 1.69415136 0 0 Z " fill="#EEEEEE" transform="translate(108,53)"/>
<path d="M0 0 C4.50696151 4.50696151 4.50696151 4.50696151 6.359375 7.3828125 C6.75253906 7.99253906 7.14570312 8.60226563 7.55078125 9.23046875 C7.94652344 9.85566406 8.34226562 10.48085938 8.75 11.125 C9.16121094 11.75792969 9.57242188 12.39085938 9.99609375 13.04296875 C13 17.74343335 13 17.74343335 13 20 C8.05 20.495 8.05 20.495 3 21 C2.01 14.07 1.02 7.14 0 0 Z " fill="#F1F1F1" transform="translate(25,53)"/>
<path d="M0 0 C2.625 0.375 2.625 0.375 5 1 C5.625 2.875 5.625 2.875 6 5 C5.34 5.66 4.68 6.32 4 7 C1.375 6.625 1.375 6.625 -1 6 C-1.625 4.125 -1.625 4.125 -2 2 C-1.34 1.34 -0.68 0.68 0 0 Z " fill="#EBEBEB" transform="translate(16,32)"/>
<path d="M0 0 C2.625 0.375 2.625 0.375 5 1 C5.625 2.875 5.625 2.875 6 5 C5.34 5.66 4.68 6.32 4 7 C1.375 6.625 1.375 6.625 -1 6 C-1.625 4.125 -1.625 4.125 -2 2 C-1.34 1.34 -0.68 0.68 0 0 Z " fill="#E7E7E7" transform="translate(65,19)"/>
<path d="M0 0 C1.66611905 -0.042721 3.33382885 -0.04063832 5 0 C6 1 6 1 6.0625 3.5625 C6.041875 4.366875 6.02125 5.17125 6 6 C3.625 6.625 3.625 6.625 1 7 C0.34 6.34 -0.32 5.68 -1 5 C-0.625 2.375 -0.625 2.375 0 0 Z " fill="#EAEAEA" transform="translate(39,22)"/>
<path d="M0 0 C1.67542976 0.28604898 3.34385343 0.61781233 5 1 C6.125 4.75 6.125 4.75 5 7 C3.33388095 7.042721 1.66617115 7.04063832 0 7 C-1 6 -1 6 -1.125 3.5 C-1 1 -1 1 0 0 Z " fill="#F0F0F0" transform="translate(90,23)"/>
<path d="M0 0 C1.67542976 0.28604898 3.34385343 0.61781233 5 1 C5 2.65 5 4.3 5 6 C2.625 6.625 2.625 6.625 0 7 C-0.66 6.34 -1.32 5.68 -2 5 C-1.46428571 1.46428571 -1.46428571 1.46428571 0 0 Z " fill="#F4F4F4" transform="translate(114,32)"/>
</svg>
