<?xml version="1.0" encoding="UTF-8"?>
<svg version="1.1" xmlns="http://www.w3.org/2000/svg" width="133" height="134">
<path d="M0 0 C2.6875 1.3125 2.6875 1.3125 4.0625 3.6875 C4.6875 6.3125 4.6875 6.3125 4.6875 9.3125 C5.57050781 9.45945312 6.45351562 9.60640625 7.36328125 9.7578125 C20.98427123 12.30351847 30.96482147 17.31175742 39.3359375 28.51953125 C53.18589969 49.7163008 51.6875 76.20214389 51.6875 100.3125 C27.5975 100.3125 3.5075 100.3125 -21.3125 100.3125 C-21.3125 85.24676558 -15.86140905 79.18441569 -5.76171875 68.703125 C-1.92774347 64.47744327 -0.18591062 59.60828643 1.6875 54.3125 C1.3575 53.9825 1.0275 53.6525 0.6875 53.3125 C0.23761719 53.725 -0.21226563 54.1375 -0.67578125 54.5625 C-4.58390123 58.07119289 -8.56550492 61.24406766 -12.875 64.25 C-16.49457151 66.80969698 -19.34189203 69.30190163 -22.125 72.75 C-24.41317829 75.55521858 -25.04095152 76.22539955 -28.625 77.375 C-31.3125 77.3125 -31.3125 77.3125 -33.3125 76.3125 C-33.3125 75.6525 -33.3125 74.9925 -33.3125 74.3125 C-34.8903125 74.4053125 -34.8903125 74.4053125 -36.5 74.5 C-40.59233783 74.29873748 -42.19860291 73.90741424 -45.3125 71.3125 C-48.65634747 66.46968642 -49.025042 62.00730813 -48.3125 56.3125 C-47.16057071 52.76251148 -45.56698806 49.50880989 -43.875 46.1875 C-43.42632568 45.27750244 -42.97765137 44.36750488 -42.51538086 43.42993164 C-33.09425024 24.60917605 -33.09425024 24.60917605 -27.5625 18.32421875 C-25.7492422 15.40600698 -26.09313468 13.07732126 -26.25 9.6875 C-26.40234375 6.2109375 -26.40234375 6.2109375 -26.3125 3.3125 C-24.3125 1.3125 -24.3125 1.3125 -22.0625 0.8125 C-18.01819879 1.54782749 -15.74792727 4.08200197 -13.3125 7.3125 C-13.3125 7.9725 -13.3125 8.6325 -13.3125 9.3125 C-9.80330973 8.14276991 -9.18543664 7.07127156 -7 4.1875 C-3.75142668 0.35390818 -3.75142668 0.35390818 0 0 Z " fill="#FCFCFC" transform="translate(63.3125,17.6875)"/>
<path d="M0 0 C2.6875 1.3125 2.6875 1.3125 4.0625 3.6875 C4.6875 6.3125 4.6875 6.3125 4.6875 9.3125 C5.57050781 9.45945312 6.45351562 9.60640625 7.36328125 9.7578125 C20.98427123 12.30351847 30.96482147 17.31175742 39.3359375 28.51953125 C53.18589969 49.7163008 51.6875 76.20214389 51.6875 100.3125 C27.5975 100.3125 3.5075 100.3125 -21.3125 100.3125 C-21.3125 85.24676558 -15.86140905 79.18441569 -5.76171875 68.703125 C-1.92774347 64.47744327 -0.18591062 59.60828643 1.6875 54.3125 C1.3575 53.9825 1.0275 53.6525 0.6875 53.3125 C0.23761719 53.725 -0.21226563 54.1375 -0.67578125 54.5625 C-4.58390123 58.07119289 -8.56550492 61.24406766 -12.875 64.25 C-16.49457151 66.80969698 -19.34189203 69.30190163 -22.125 72.75 C-24.41317829 75.55521858 -25.04095152 76.22539955 -28.625 77.375 C-31.3125 77.3125 -31.3125 77.3125 -33.3125 76.3125 C-33.3125 75.6525 -33.3125 74.9925 -33.3125 74.3125 C-34.8903125 74.4053125 -34.8903125 74.4053125 -36.5 74.5 C-40.59233783 74.29873748 -42.19860291 73.90741424 -45.3125 71.3125 C-48.65634747 66.46968642 -49.025042 62.00730813 -48.3125 56.3125 C-47.16057071 52.76251148 -45.56698806 49.50880989 -43.875 46.1875 C-43.42632568 45.27750244 -42.97765137 44.36750488 -42.51538086 43.42993164 C-33.09425024 24.60917605 -33.09425024 24.60917605 -27.5625 18.32421875 C-25.7492422 15.40600698 -26.09313468 13.07732126 -26.25 9.6875 C-26.40234375 6.2109375 -26.40234375 6.2109375 -26.3125 3.3125 C-24.3125 1.3125 -24.3125 1.3125 -22.0625 0.8125 C-18.01819879 1.54782749 -15.74792727 4.08200197 -13.3125 7.3125 C-13.3125 7.9725 -13.3125 8.6325 -13.3125 9.3125 C-9.80330973 8.14276991 -9.18543664 7.07127156 -7 4.1875 C-3.75142668 0.35390818 -3.75142668 0.35390818 0 0 Z M-2.3125 6.3125 C-4.26125383 8.55651957 -5.98068267 10.64886533 -7.3125 13.3125 C-14.42243658 14.0355444 -14.42243658 14.0355444 -16.95703125 11.9765625 C-18.3125 10.3125 -18.3125 10.3125 -20.3125 7.3125 C-21.04427099 9.58912087 -21.45434771 10.88067249 -20.6953125 13.19140625 C-20.17036447 16.10004685 -21.01675802 17.05079051 -22.625 19.5 C-23.17800781 20.37269531 -23.73101562 21.24539062 -24.30078125 22.14453125 C-24.96464844 23.18996094 -25.62851562 24.23539063 -26.3125 25.3125 C-38.82355104 43.54623404 -38.82355104 43.54623404 -43.3125 64.3125 C-42.50066067 67.48038784 -42.50066067 67.48038784 -40.3125 69.3125 C-37.18614791 69.72996608 -37.18614791 69.72996608 -34.3125 69.3125 C-33.9825 67.6625 -33.6525 66.0125 -33.3125 64.3125 C-31.6625 64.3125 -30.0125 64.3125 -28.3125 64.3125 C-28.6425 66.9525 -28.9725 69.5925 -29.3125 72.3125 C-26.52489877 70.24171051 -24.31911235 68.32105716 -22.1875 65.5625 C-19.84992894 62.63870423 -17.1759008 60.65837286 -14.125 58.5 C-1.15704624 49.37279084 -1.15704624 49.37279084 6.4375 35.875 C6.52 35.359375 6.6025 34.84375 6.6875 34.3125 C7.3475 34.3125 8.0075 34.3125 8.6875 34.3125 C8.8125 40.0625 8.8125 40.0625 7.6875 42.3125 C7.47717777 44.11377457 7.27086702 45.91568889 7.09301758 47.72045898 C5.67709452 61.71320368 0.5965147 70.67712917 -9.5625 80.5 C-12.66411946 83.52948878 -14.83444689 86.15547564 -16.3125 90.3125 C-16.3125 91.9625 -16.3125 93.6125 -16.3125 95.3125 C4.4775 95.3125 25.2675 95.3125 46.6875 95.3125 C47.16795623 58.2952316 47.16795623 58.2952316 30.7265625 26.09375 C22.31699711 17.95741958 12.08067101 14.81514263 0.6875 13.3125 C0.1925 9.8475 0.1925 9.8475 -0.3125 6.3125 C-0.9725 6.3125 -1.6325 6.3125 -2.3125 6.3125 Z " fill="#070707" transform="translate(63.3125,17.6875)"/>
<path d="M0 0 C1.65 0.33 3.3 0.66 5 1 C4.54663921 5.87362847 3.2910841 8.39042389 0 12 C-1.65 11.67 -3.3 11.34 -5 11 C-5.39169887 8.33644766 -5.40564529 6.60775627 -3.88671875 4.33203125 C-2.63610683 2.8489112 -1.32135486 1.42045648 0 0 Z " fill="#141414" transform="translate(43,40)"/>
<path d="M0 0 C1.67542976 0.28604898 3.34385343 0.61781233 5 1 C5 2.65 5 4.3 5 6 C2.625 6.625 2.625 6.625 0 7 C-0.66 6.34 -1.32 5.68 -2 5 C-1.46428571 1.46428571 -1.46428571 1.46428571 0 0 Z " fill="#0B0B0B" transform="translate(25,72)"/>
</svg>
