<?xml version="1.0" encoding="UTF-8"?>
<svg version="1.1" xmlns="http://www.w3.org/2000/svg" width="133" height="134">
<path d="M0 0 C2.16015625 0.47265625 2.16015625 0.47265625 5.22265625 2.41015625 C7.78900073 6.46663623 7.95719257 9.78272674 7.16015625 14.47265625 C6.1328125 16.75 6.1328125 16.75 5.16015625 18.47265625 C5.82015625 18.67890625 6.48015625 18.88515625 7.16015625 19.09765625 C16.11820142 23.20342695 21.33648973 29.56862626 25.53515625 38.34765625 C27.00990343 45.72139217 27.01419755 52.15040531 23.328125 58.81640625 C22.08969086 60.57258041 20.72378107 62.00311774 19.16015625 63.47265625 C19.44890625 64.15328125 19.73765625 64.83390625 20.03515625 65.53515625 C24.0071744 75.90653698 24.0071744 75.90653698 23.16015625 81.47265625 C20.69872057 84.39976895 18.33891447 86.35348411 15.16015625 88.47265625 C15.75965088 88.48723877 16.35914551 88.50182129 16.97680664 88.5168457 C19.7260308 88.59189446 22.47411514 88.68836377 25.22265625 88.78515625 C26.16560547 88.80771484 27.10855469 88.83027344 28.08007812 88.85351562 C37.03121603 89.1965906 42.50432052 91.46617035 49.16015625 97.47265625 C48.91015625 99.84765625 48.91015625 99.84765625 48.16015625 102.47265625 C44.61845218 104.79145293 42.1166869 104.37016563 37.99658203 103.796875 C31.2177728 103.02202058 24.33304118 103.09138764 17.51391602 102.92041016 C4.30593096 102.58090529 4.30593096 102.58090529 -0.4921875 101.87890625 C-3.6702671 101.31492391 -3.6702671 101.31492391 -6.09863281 101.9296875 C-9.44223472 102.59197559 -12.63911005 102.67220507 -16.046875 102.75390625 C-16.73110031 102.77231567 -17.41532562 102.7907251 -18.12028503 102.80969238 C-20.2975556 102.86809641 -22.47490301 102.92101352 -24.65234375 102.97265625 C-27.51316019 103.04100667 -30.37377017 103.11476176 -33.234375 103.19140625 C-35.13473511 103.2368457 -35.13473511 103.2368457 -37.07348633 103.28320312 C-39.83032143 103.42187584 -42.40902492 103.66953665 -45.12768555 104.06054688 C-48.83984375 104.47265625 -48.83984375 104.47265625 -51.83984375 103.34765625 C-53.83984375 101.47265625 -53.83984375 101.47265625 -54.52734375 99.09765625 C-53.71526473 95.99699089 -52.27407722 94.61441689 -49.8359375 92.5859375 C-43.733256 89.1822893 -37.22136796 89.08330288 -30.40234375 88.84765625 C-29.48001953 88.80898437 -28.55769531 88.7703125 -27.60742188 88.73046875 C-25.35175232 88.63696949 -23.09607459 88.55121715 -20.83984375 88.47265625 C-21.62359375 87.85390625 -22.40734375 87.23515625 -23.21484375 86.59765625 C-27.77141451 82.90900373 -27.77141451 82.90900373 -28.140625 80.5546875 C-28.16917102 75.02627441 -27.22455711 71.44080908 -24.83984375 66.47265625 C-24.83984375 62.52544937 -26.36493484 61.45710522 -28.83984375 58.47265625 C-32.24624547 53.12316622 -31.36289049 46.54804533 -30.83984375 40.47265625 C-28.7234462 31.55163873 -21.95090644 24.20080741 -14.33984375 19.41015625 C-13.18190791 18.74879674 -12.01844771 18.09643867 -10.83984375 17.47265625 C-11.19046875 16.79203125 -11.54109375 16.11140625 -11.90234375 15.41015625 C-13.11781697 11.60167349 -12.872414 9.32758519 -11.83984375 5.47265625 C-8.56675576 0.66530827 -5.58593274 -0.36369178 0 0 Z " fill="#040404" transform="translate(68.83984375,13.52734375)"/>
<path d="M0 0 C7.45508602 3.78137035 14.47193841 9.86152953 18.19921875 17.4375 C20.01436874 23.24597998 19.97000124 29.05999752 17.25 34.5 C14.12814322 37.96872975 12.44488227 39.81682041 7.68774414 40.41992188 C0.43656349 40.51064669 0.43656349 40.51064669 -2.69897461 40.50097656 C-4.92758448 40.50000433 -7.15274656 40.54163613 -9.38085938 40.5859375 C-10.80468036 40.59114529 -12.22851325 40.59383268 -13.65234375 40.59375 C-14.94132568 40.60083984 -16.23030762 40.60792969 -17.55834961 40.61523438 C-21.85170419 39.84774813 -23.27516925 38.32174026 -26 35 C-29.16417474 30.15726914 -28.75966594 24.55035208 -28 19 C-24.62053124 9.9152684 -17.75033852 5.04021665 -9.875 0 C-5.98202825 -1.35407713 -3.97582231 -1.14557592 0 0 Z " fill="#FBFBFB" transform="translate(71,35)"/>
<path d="M0 0 C7.3989252 1.87607827 14.70963923 1.85529508 22.30639648 1.89306641 C29.00542057 2.04599276 33.34143046 3.03129648 39.10131836 6.50244141 C36.09100092 7.43667785 35.23481568 7.54694051 32.10131836 6.50244141 C29.59963537 6.36098804 27.12049364 6.26931326 24.61694336 6.22119141 C23.88312439 6.20278198 23.14930542 6.18437256 22.39324951 6.16540527 C20.04601981 6.10672297 17.69871614 6.05393209 15.35131836 6.00244141 C12.27305668 5.93430446 9.19499912 5.86051043 6.11694336 5.78369141 C5.41877502 5.77011597 4.72060669 5.75654053 4.00128174 5.74255371 C0.70144287 5.6602783 -2.44516759 5.41931397 -5.7121582 4.92236328 C-8.91302072 4.26418575 -8.91302072 4.26418575 -11.89868164 5.50244141 C-14.32763568 5.6436512 -16.73345368 5.73547354 -19.16430664 5.78369141 C-19.87592957 5.80210083 -20.58755249 5.82051025 -21.32073975 5.83947754 C-23.59663733 5.8981485 -25.87261119 5.95094224 -28.14868164 6.00244141 C-30.41046295 6.05409788 -32.67215385 6.10720742 -34.93377686 6.16540527 C-36.33948518 6.20157592 -37.74529369 6.23410829 -39.15118408 6.2623291 C-43.48468428 6.37370254 -47.62782722 6.81855094 -51.89868164 7.50244141 C-51.89868164 6.84244141 -51.89868164 6.18244141 -51.89868164 5.50244141 C-47.46264022 2.98316116 -44.07725255 2.08043678 -38.99633789 1.84228516 C-37.69374023 1.77074219 -36.39114258 1.69919922 -35.04907227 1.62548828 C-33.68649056 1.56257978 -32.32385916 1.50073904 -30.96118164 1.43994141 C-28.28467342 1.313188 -25.60954459 1.17395324 -22.93383789 1.02978516 C-21.75184814 0.97556396 -20.5698584 0.92134277 -19.35205078 0.86547852 C-3.18349145 -0.83424914 -3.18349145 -0.83424914 0 0 Z " fill="#EAEAEA" transform="translate(72.898681640625,105.49755859375)"/>
<path d="M0 0 C2.01221583 0.00632237 4.018541 -0.04059674 6.0300293 -0.09130859 C15.45117712 -0.10083935 15.45117712 -0.10083935 18.60668945 1.94091797 C20.42852066 4.04959614 21.58276367 5.7913656 21.58276367 8.63134766 C8.71276367 8.63134766 -4.15723633 8.63134766 -17.41723633 8.63134766 C-15.02247691 -0.94769002 -8.58338258 -0.0565454 0 0 Z " fill="#EAEAEA" transform="translate(64.417236328125,78.36865234375)"/>
<path d="M0 0 C13.53 0 27.06 0 41 0 C41 0.99 41 1.98 41 3 C34.42584238 6.96930271 27.92423999 7.41127445 20.4375 7.4375 C19.55167236 7.44716797 18.66584473 7.45683594 17.75317383 7.46679688 C12.07355071 7.39514965 5.96885412 7.01586104 1 4 C0.67 2.68 0.34 1.36 0 0 Z " fill="#F0F0F0" transform="translate(46,91)"/>
<path d="M0 0 C2.0625 0.4375 2.0625 0.4375 4 1 C4 2.98 4 4.96 4 7 C5.98 7 7.96 7 10 7 C10.5625 8.9375 10.5625 8.9375 11 11 C10 12 10 12 6.9375 12.0625 C5.968125 12.041875 4.99875 12.02125 4 12 C4 13.98 4 15.96 4 18 C2.0625 18.5625 2.0625 18.5625 0 19 C-1 18 -1 18 -1.0625 14.9375 C-1.041875 13.968125 -1.02125 12.99875 -1 12 C-2.98 12 -4.96 12 -7 12 C-7.5625 10.0625 -7.5625 10.0625 -8 8 C-7 7 -7 7 -3.9375 6.9375 C-2.4834375 6.9684375 -2.4834375 6.9684375 -1 7 C-1.020625 6.030625 -1.04125 5.06125 -1.0625 4.0625 C-1 1 -1 1 0 0 Z " fill="#1B1B1B" transform="translate(65,44)"/>
<path d="M0 0 C3.0625 0.1875 3.0625 0.1875 5.0625 2.1875 C5.375 5.1875 5.375 5.1875 5.0625 8.1875 C2.0625 10.1875 2.0625 10.1875 -0.5 9.9375 C-2.9375 9.1875 -2.9375 9.1875 -4.9375 7.1875 C-4.23164336 0.2701049 -4.23164336 0.2701049 0 0 Z " fill="#F3F3F3" transform="translate(65.9375,18.8125)"/>
<path d="M0 0 C-0.33 0.99 -0.66 1.98 -1 3 C-4.63 3.66 -8.26 4.32 -12 5 C-12 4.34 -12 3.68 -12 3 C-7.77050005 0.58314288 -4.87664009 -0.34833144 0 0 Z " fill="#DEDEDE" transform="translate(33,108)"/>
</svg>
